<svg height="27" viewBox="0 0 26 27" width="26" xmlns="http://www.w3.org/2000/svg"><path d="m13 0c7.179705 0 13 5.820295 13 13s-5.820295 13-13 13-13-5.820295-13-13 5.820295-13 13-13zm3.393312 7.442968c-1.73082 0-3.1343 1.40348-3.1343 3.13365 0 .24596.027495.485095.081315.714545-2.60455-.13091-4.914195-1.378065-6.459635-3.274245-.269425.462995-.42445 1.00113-.42445 1.57508 0 1.08732.55328 2.04711 1.394575 2.60858-.51402-.015795-.997035-.15704-1.419405-.392015-.000715.013065-.000715.02626-.000715.039975 0 1.517945 1.08043 2.785055 2.514265 3.07242-.263185.071565-.540215.11024-.826085.11024-.20189 0-.398255-.02002-.58916-.05655.39897 1.245075 1.55584 2.15111 2.927665 2.176655-1.07276.840645-2.42398 1.341535-3.892265 1.341535-.252915 0-.50232-.014495-.74763-.04342 1.387035.888875 3.03381 1.40764 4.80389 1.40764 5.764395 0 8.9167-4.775615 8.9167-8.916635 0-.13572-.002795-.27079-.00897-.405145.611845-.442325 1.14374-.99424 1.56338-1.62266-.561535.249405-1.165775.41756-1.79972.49335.64701-.38792 1.14374-1.001845 1.378065-1.733615-.60567.358995-1.27608.6201-1.98991.760695-.57187-.609115-1.38632-.99008-2.28761-.99008z" fill="#ccd1d7" fill-rule="evenodd" transform="translate(0 .5)"/></svg>