<svg height="39" viewBox="0 0 180 39" width="180" xmlns="http://www.w3.org/2000/svg"><g fill="#fff" fill-rule="evenodd"><path d="m63.5142661 32.6129372v-1.7720082l-2.8845557-.6415892v-5.9881657h4.4331067c.9109123 0 1.7610972-.1171154 2.5505545-.3513464.7894574-.234231 1.4473385-.6263133 1.9736434-1.1762468.7084874-.6314053 1.2803379-1.4563056 1.7155516-2.4747012.4352137-1.0183955.6528205-2.036791.6528205-3.0551865 0-.9776597-.2074856-1.9043997-.6224568-2.7802198-.4149711-.8758202-.9767004-1.6396168-1.6851878-2.2913899-.5263049-.468462-1.1791254-.8299924-1.9584615-1.0845913s-1.6447028-.3818983-2.5961002-.3818983h-10.9613117v1.7720082l2.5505545.6415892v17.1701485l-2.5505545.6415892v1.7720082zm-.0303637-10.6320492h-2.854192v-9.1350079h2.732737c.5870324 0 1.1285192.0967476 1.6244603.2902427.4959412.1934952.915973.46337 1.2600954.8096245.4250925.448094.7742755.9929356 1.0475492 1.6345248s.4099106 1.2984543.4099106 1.9705953c0 .7536127-.1416975 1.4206618-.4250925 2.0011472-.2833949.5804855-.6275173 1.0744073-1.0323673 1.4817655-.2833949.2851508-.673063.5142898-1.1690041.687417-.4959412.1731272-1.0273067.2596909-1.5940966.2596909zm18.2470665 10.9375679c1.2752773 0 2.3784933-.1527594 3.3096481-.458278.9311549-.3055187 1.7307335-.8147164 2.3987358-1.5275933.7084874-.7739806 1.2499742-1.7363644 1.6244604-2.8871513s.5617293-2.3779536.5617293-3.6814998c0-1.3035463-.1872431-2.5307129-.5617293-3.6814998-.3744862-1.150787-.915973-2.1131708-1.6244604-2.8871514-.6680023-.7128768-1.4675809-1.2220746-2.3987358-1.5275932-.9311548-.3055187-2.0343708-.458278-3.3096481-.458278s-2.3784933.1527593-3.3096482.458278c-.9311548.3055186-1.7307334.8147164-2.3987358 1.5275932-.7084873.7739806-1.2499741 1.7363644-1.6244603 2.8871514-.3744862 1.1507869-.5617293 2.3779535-.5617293 3.6814998 0 1.3035462.1872431 2.5307129.5617293 3.6814998s.915973 2.1131707 1.6244603 2.8871513c.6680024.7128769 1.467581 1.2220746 2.3987358 1.5275933.9311549.3055186 2.0343709.458278 3.3096482.458278zm0-2.046975c-1.2955198 0-2.2165534-.4073582-2.7631008-1.2220747-.6477598-.9980276-.9716398-2.7598518-.9716398-5.2854727s.32388-4.2874452.9716398-5.2854728c.5465474-.8147164 1.467581-1.2220746 2.7631008-1.2220746s2.2165533.4073582 2.7631007 1.2220746c.6477599.9980276.9716399 2.7598519.9716399 5.2854728s-.32388 4.2874451-.9716399 5.2854727c-.5465474.8147165-1.4675809 1.2220747-2.7631007 1.2220747zm19.8867091 1.7414563v-1.7109045l-3.2792848-.5804854v-4.7966429c0-1.0591314.0910912-1.9502275.2732737-2.6732883s.3947287-1.4410296.6376386-2.1539065c.08097-.2036791.1973644-.4430021.3491831-.7179689.1518187-.2749667.3238799-.5346576.5161834-.7790725.192304-.244415.389668-.4480941.592093-.6110373.202425-.1629433.394729-.244415.576911-.244415-.060727.224047-.101212.3818984-.121455.4735539-.020242.0916556-.030363.2087711-.030363.3513465 0 .448094.167.8605442.501001 1.2373506.334002.3768063.915973.5652095 1.745916.5652095.668002 0 1.184186-.2495069 1.548551-.7485207s.546547-1.0540394.546547-1.6650767c0-.8350843-.263152-1.5021334-.789457-2.0011472s-1.184186-.7485207-1.973644-.7485207c-.971639 0-1.847127.3717143-2.626464 1.1151431-.7793356.7434287-1.4017924 1.817836-1.8673698 3.2232218h-.121455l-.6680023-4.0328463h-5.2832916v1.2526265l2.3380083.5804855v12.3735056l-2.3380083.5804854v1.7109045zm9.654126.3055187c.526305 0 1.239853-.0865636 2.140644-.2596909.900791-.1731272 1.938219-.443002 3.112284-.8096244v-1.3442821h-2.125462c-.364365 0-.627517-.0305519-.789457-.0916556s-.273274-.1527593-.334001-.2749668c-.060728-.1629433-.101213-.3717144-.121455-.6263132-.020243-.2545989-.030364-.7281528-.030364-1.4206618v-9.9904601h3.886559v-1.9858713h-3.886559v-4.2772612l-3.461467.4888299-.364365 3.7884313-2.975647.4277262v1.5581451h2.945283v11.0292235c0 .7739806.015182 1.3493741.045546 1.7261804.030364.3768064.096152.687417.197364.9318319.263153.7536127.850185 1.1304191 1.761097 1.1304191zm16.911062 0 3.066738-11.0292235 3.15783 11.0292235h4.038378l4.372379-14.4815844 1.639642-.5804854v-1.7109045h-6.680024v1.7109045l1.973644.5804854-2.459464 9.562734-.364364 1.8025601h-.121455l-.303638-1.8025601-3.248921-12.1901944h-3.097101l-3.15783 12.2207463-.334001 1.80256h-.151819l-.303637-1.80256-2.580919-9.5932859 2.095099-.5804854v-1.7109045h-7.712391v1.7109045l1.609278.5804854 4.524198 14.4815844zm29.451288 0c.951398 0 2.358251-.2953347 4.220561-.8860041v-1.374834h-1.366369c-.445335 0-.73379-.1884032-.865366-.5652095-.131577-.3768063-.197365-1.0744073-.197365-2.0928028v-3.9717425c0-3.0959224-.799578-5.3567605-2.398736-6.7825142-.465577-.4073582-1.077912-.7485207-1.837006-1.0234875s-1.614339-.4124502-2.565736-.4124502c-.708488 0-1.411915.0865636-2.110281.2596908-.698366.1731273-1.330944.4277262-1.897734.7637967s-1.022246.7485207-1.366368 1.2373505c-.344123.4888299-.516184 1.0489474-.516184 1.6803527 0 .6314052.177122 1.1558789.531366 1.573421.354243.4175422.855245.6263133 1.503005.6263133.627517 0 1.163944-.1985871 1.609278-.5957614.445335-.3971743.668003-.8503603.668003-1.359558 0-.224047-.055667-.4837379-.167001-.7790726s-.308698-.5244737-.592093-.687417c.121455-.2851507.359305-.5091977.713548-.672141.354244-.1629433.743912-.2444149 1.169004-.2444149.587033 0 1.067792.1425753 1.442278.4277261.374486.2851507.703427.6619571.986822 1.130419.222667.4073582.399789.8809121.531365 1.4206618.131577.5397496.247971 1.3188222.349184 2.3372177-1.659885.2647828-3.092042.5703015-4.29647.916556-1.204429.3462544-2.196311.7637966-2.975647 1.2526265-.779336.4888298-1.356248 1.0540393-1.730734 1.6956285s-.561729 1.3799259-.561729 2.2150103c0 1.2220746.364365 2.1793664 1.093095 2.8718753.72873.692509 1.730733 1.0387635 3.006011 1.0387635 1.194307 0 2.307644-.2953347 3.340011-.8860041 1.032368-.5906694 1.86231-1.4053859 2.489827-2.4441493h.121455c0 .6721411.025304 1.2220746.07591 1.6498008.050606.4277261.136637.7637966.258092 1.0082115.121455.244415.288455.4175422.501001.5193817.212547.1018396.490881.1527594.835003.1527594zm-5.769111-2.2302862c-.465577 0-.900791-.1833112-1.305641-.5499336s-.607275-.9980276-.607275-1.8942157c0-.5091977.091091-.9623837.273274-1.359558.182182-.3971743.48582-.7485207.910912-1.0540394.425092-.3055186.986822-.5855774 1.685188-.8401763s1.573854-.4939218 2.626464-.7179688c.040485.2851507.070849.5753935.091091.8707282s.030364.5652095.030364.8096244c0 .7332448-.101213 1.36465-.303638 1.8942157-.202425.5295656-.414971.9369239-.637638 1.2220746-.384608.5295657-.835003.9318319-1.351187 1.2067987s-.986822.4124502-1.411914.4124502zm14.694508 7.729622c.789458 0 1.45746-.1171155 2.004007-.3513464.546548-.234231 1.04755-.6110374 1.503006-1.1304191s.89067-1.1966147 1.305641-2.0316991c.414971-.8350843.875488-1.8432958 1.38155-3.0246347l4.888563-13.4733727 1.852188-.5804855v-1.7109045h-6.680023v1.7109045l1.761097.5804855-3.370376 10.6014974h-.121455l-3.73474-10.6014974 2.155826-.5804855-.24291-1.7109045h-7.712392v1.7109045l1.821825.5804855 6.103113 14.4204806-.364365 1.130419c-.24291.6314052-.470638 1.135511-.683184 1.5123174-.212547.3768063-.414972.6619571-.607275.8554522-.192304.1934952-.384608.3157026-.576911.3666224-.192304.0509198-.389668.0763797-.592093.0763797-.16194 0-.339062-.0356439-.531366-.1069316s-.308698-.2087711-.349183-.4124502c.24291 0 .455456-.0509197.637639-.1527593.182182-.1018395.32894-.229139.440274-.3818983s.192304-.3055187.24291-.458278.075909-.2800588.075909-.3818983c0-.5295657-.156879-.9267399-.470638-1.1915228-.313759-.2647828-.764154-.3971742-1.351186-.3971742-.668003 0-1.20949.229139-1.624461.6874169-.414971.458278-.622457 1.0438555-.622457 1.7567323 0 .3869903.091092.7434288.273274 1.0693153.182183.3258866.430153.6110373.743912.8554523.313759.2444149.678124.4328181 1.093095.5652095s.865366.1985871 1.351186.1985871z"/><path d="m3.0192629 9.73647851c2.67124162-4.40797451 11.7067249-10.27302948 19.8650141-9.6971217 27.9401467 1.97345525 19.2407008 26.10542679 11.246166 32.30361319-7.1859982 5.5720345-18.3912256 9.1461249-27.96274829.3310203-9.57109623-8.8155268-5.81924697-18.5299595-3.14843181-22.93751179zm18.6764807-.73617465-.3169375.00011137c-1.5670788.00083046-2.8522784.46256696-3.3257506 1.18423787-.648958-.66146247-1.7633346-.99696884-3.3143059-.99696884h-1.2572236c-.2661957 0-.481526.21093717-.481526.47170203v.57717061c0 .2537059.2051572.4621517.4641469.471702.6476864.0228377 1.1470152.10796 1.4839986.253706.3954787.1706598.6417521.3969605.7528082.6909438.1157189.3072707.1716708.725408.1716708 1.2789104v12.3526969c0 .5535025-.0584952.9741312-.1788767 1.2855542-.1161427.2993813-.3619922.525682-.7523843.6917743-.3331685.1415936-.8299541.2246397-1.4767927.246647-.2594136.009135-.4645708.2175808-.4645708.4712868v.5489349c0 .2599344.2153303.4712868.481526.4712868l1.7688449-.0004152c1.3025786-.064776 2.2541858-.4002824 2.8298128-.9982145.575627.5975169 1.520876.9334385 2.8344754.9982145h1.8112328c.2661957 0 .481526-.2109372.481526-.4712868v-.5481045c0-.2541212-.2064289-.4629822-.4658425-.4712868-.6587072-.0203463-1.1682091-.0992401-1.5145178-.2337749-.404804-.1565419-.6599788-.3778599-.7803603-.6772412-.1246203-.3110077-.1856588-.7407715-.1856588-1.3133746v-5.0296889h1.2457789c1.5111268 0 2.9705404-.1191712 4.3375485-.3550223 1.3771813-.2366814 2.592017-.7814641 3.6101731-1.6189843 1.0401978-.8557904 1.545461-2.072001 1.545461-3.7183906 0-1.6870821-.5523137-2.9086907-1.6891558-3.735415-1.1109855-.8076236-2.2249382-1.30506996-3.3126104-1.47946684-1.0770752-.17273595-2.2147651-.284433-3.3833981-.33301499-.2165413-.00818597-.5249518-.01301621-.9190921-.01422921zm1.3035499 1.88733474c.7557754.1253996 1.4123632.3429805 1.9511127.6477598.8973508.5065814 1.3521724 1.5351078 1.3521724 3.0560977 0 1.6451439-.4370187 2.716439-1.2991876 3.1852344-.8774284.4766848-2.0435182.7187642-3.467326.7187642h-1.2750265v-5.5636756c0-.5535024.0563758-.9716397.1720947-1.2789104.1093606-.289831.3624161-.5227754.7523843-.6909438.3624161-.156542.9363476-.1764731 1.813776-.0743263z" fill-rule="nonzero"/></g></svg>