<svg height="90" viewBox="0 0 126 90" width="126" xmlns="http://www.w3.org/2000/svg"><g fill="none" fill-rule="evenodd" transform="translate(0 .5)"><path d="m9.38239704 82.9973433v-1.7720082l-2.88455573-.6415892v-5.9881657h4.43310669c.9109123 0 1.7610972-.1171154 2.5505545-.3513464.7894574-.234231 1.4473385-.6263133 1.9736434-1.1762468.7084874-.6314053 1.2803379-1.4563056 1.7155516-2.4747012.4352137-1.0183955.6528205-2.036791.6528205-3.0551865 0-.9776597-.2074856-1.9043997-.6224568-2.7802198-.4149711-.8758202-.9767004-1.6396168-1.6851878-2.2913899-.5263049-.468462-1.1791254-.8299924-1.9584615-1.0845913s-1.6447028-.3818983-2.5961001-.3818983h-10.9613118v1.7720082l2.55055453.6415892v17.1701485l-2.55055453.6415892v1.7720082zm-.03036375-10.6320493h-2.85419198v-9.1350078h2.73273701c.58703239 0 1.12851918.0967476 1.62446028.2902427.4959412.1934952.915973.46337 1.2600954.8096245.4250925.448094.7742755.9929356 1.0475492 1.6345248s.4099106 1.2984543.4099106 1.9705953c0 .7536127-.1416975 1.4206618-.4250924 2.0011472-.283395.5804855-.6275174 1.0744073-1.0323674 1.4817655-.2833949.2851508-.673063.5142897-1.1690041.687417-.4959412.1731272-1.02730671.2596908-1.59409661.2596908zm18.24706651 10.937568c1.2752773 0 2.3784933-.1527594 3.3096481-.458278.9311549-.3055187 1.7307335-.8147164 2.3987359-1.5275933.7084873-.7739806 1.2499741-1.7363644 1.6244603-2.8871513.3744862-1.150787.5617293-2.3779536.5617293-3.6814998 0-1.3035463-.1872431-2.5307129-.5617293-3.6814998-.3744862-1.150787-.915973-2.1131708-1.6244603-2.8871514-.6680024-.7128768-1.467581-1.2220746-2.3987359-1.5275932-.9311548-.3055187-2.0343708-.458278-3.3096481-.458278s-2.3784933.1527593-3.3096482.458278c-.9311548.3055186-1.7307334.8147164-2.3987358 1.5275932-.7084873.7739806-1.2499741 1.7363644-1.6244603 2.8871514-.3744862 1.1507869-.5617293 2.3779535-.5617293 3.6814998 0 1.3035462.1872431 2.5307128.5617293 3.6814998.3744862 1.1507869.915973 2.1131707 1.6244603 2.8871513.6680024.7128769 1.467581 1.2220746 2.3987358 1.5275933.9311549.3055186 2.0343709.458278 3.3096482.458278zm0-2.046975c-1.2955198 0-2.2165534-.4073582-2.7631008-1.2220747-.6477598-.9980276-.9716398-2.7598518-.9716398-5.2854727s.32388-4.2874452.9716398-5.2854728c.5465474-.8147164 1.467581-1.2220746 2.7631008-1.2220746s2.2165533.4073582 2.7631007 1.2220746c.6477599.9980276.9716399 2.7598519.9716399 5.2854728s-.32388 4.2874451-.9716399 5.2854727c-.5465474.8147165-1.4675809 1.2220747-2.7631007 1.2220747zm19.8867087 1.7414563v-1.7109045l-3.2792844-.5804854v-4.7966429c0-1.0591314.0910912-1.9502275.2732737-2.6732883s.3947287-1.4410296.6376386-2.1539065c.08097-.2036791.1973644-.4430021.3491831-.7179689.1518187-.2749667.3238799-.5346576.5161836-.7790725.1923038-.244415.3896681-.4480941.5920931-.6110373.2024249-.1629433.3947286-.244415.5769111-.244415-.0607275.224047-.1012125.3818983-.121455.4735539s-.0303637.2087711-.0303637.3513465c0 .448094.1670006.8605442.5010018 1.2373506.3340012.3768063.9159729.5652095 1.7459153.5652095.6680024 0 1.184186-.2495069 1.5485509-.7485207.364365-.4990138.5465474-1.0540394.5465474-1.6650767 0-.8350843-.2631524-1.5021334-.7894573-2.0011472s-1.184186-.7485207-1.9736434-.7485207c-.9716398 0-1.8471278.3717143-2.6264639 1.1151431-.7793361.7434287-1.4017929 1.817836-1.8673703 3.2232218h-.121455l-.6680023-4.0328463h-5.2832916v1.2526265l2.3380083.5804855v12.3735056l-2.3380083.5804854v1.7109045zm9.6541268.3055187c.5263049 0 1.2398529-.0865636 2.140644-.2596909.9007911-.1731272 1.938219-.443002 3.1122838-.8096244v-1.3442821h-2.1254621c-.3643649 0-.6275174-.0305519-.7894574-.0916556-.1619399-.0611037-.2732737-.1527593-.3340011-.2749668-.0607275-.1629433-.1012125-.3717144-.121455-.6263133-.0202425-.2545988-.0303638-.7281528-.0303638-1.4206617v-9.9904601h3.8865593v-1.9858713h-3.8865593v-4.2772612l-3.4614668.4888299-.364365 3.7884313-2.9756469.4277261v1.5581452h2.9452832v11.0292235c0 .7739806.0151819 1.3493741.0455456 1.7261804.0303637.3768064.0961519.687417.1973643.9318319.2631525.7536127.8501849 1.1304191 1.7610972 1.1304191zm16.9110618 0 3.0667382-11.0292236 3.1578294 11.0292236h4.038378l4.3723792-14.4815844 1.6396422-.5804854v-1.7109045h-6.6800238v1.7109045l1.9736434.5804854-2.4594633 9.562734-.3643649 1.8025601h-.121455l-.3036375-1.8025601-3.2489206-12.1901944h-3.0971019l-3.1578295 12.2207463-.3340012 1.80256h-.1518187l-.3036374-1.80256-2.5809183-9.5932859 2.0950984-.5804854v-1.7109045h-7.7123911v1.7109045l1.6092784.5804854 4.5241979 14.4815844zm29.4512879 0c.951398 0 2.358251-.2953347 4.220561-.8860041v-1.374834h-1.366369c-.445335 0-.73379-.1884032-.865366-.5652095-.131577-.3768063-.197365-1.0744073-.197365-2.0928028v-3.9717426c0-3.0959223-.799578-5.3567604-2.398736-6.7825141-.465577-.4073582-1.077913-.7485207-1.837006-1.0234875-.759094-.2749668-1.6143392-.4124502-2.5657366-.4124502-.7084873 0-1.4119141.0865636-2.1102802.2596908-.6983661.1731273-1.3309441.4277262-1.897734.7637967s-1.0222461.7485207-1.3663685 1.2373505c-.3441225.4888299-.5161837 1.0489474-.5161837 1.6803526 0 .6314053.1771219 1.155879.5313655 1.5734211.3542437.4175422.8552455.6263133 1.5030054.6263133.6275174 0 1.1639435-.1985871 1.6092784-.5957614.445335-.3971743.6680024-.8503603.6680024-1.359558 0-.224047-.0556668-.4837379-.1670006-.7790726-.1113337-.2953347-.308698-.5244737-.592093-.687417.121455-.2851507.3593043-.5091977.713548-.672141s.7439117-.244415 1.1690042-.244415c.5870324 0 1.0677916.1425754 1.4422778.4277262.3744862.2851507.7034269.6619571.9868219 1.130419.222667.4073582.399789.8809121.531365 1.4206618.131577.5397496.247971 1.3188222.349183 2.3372177-1.6598843.2647828-3.0920409.5703015-4.2964694.916556-1.2044286.3462544-2.1963109.7637966-2.975647 1.2526264-.7793361.4888299-1.3562472 1.0540394-1.7307334 1.6956286s-.5617293 1.3799259-.5617293 2.2150103c0 1.2220746.3643649 2.1793664 1.0930948 2.8718753.7287299.692509 1.7307334 1.0387635 3.0060107 1.0387635 1.1943073 0 2.3076446-.2953347 3.3400119-.8860041 1.0323677-.5906694 1.8623097-1.4053859 2.4898267-2.4441493h.121455c0 .6721411.025303 1.2220746.07591 1.6498008.050606.4277261.136637.7637966.258092 1.0082115.121454.244415.288455.4175422.501001.5193817.212547.1018396.490881.1527594.835003.1527594zm-5.7691112-2.2302862c-.4655774 0-.9007911-.1833112-1.305641-.5499336s-.6072749-.9980276-.6072749-1.8942157c0-.5091977.0910913-.9623838.2732737-1.359558.1821825-.3971743.4858199-.7485207.9109124-1.0540394.4250924-.3055186.9868217-.5855774 1.6851878-.8401763s1.5738542-.4939218 2.6264642-.7179688c.040485.2851507.070848.5753934.091091.8707281.020242.2953348.030364.5652096.030364.8096245 0 .7332448-.101213 1.36465-.303638 1.8942157-.202425.5295656-.414971.9369238-.637638 1.2220746-.384608.5295657-.8350034.9318319-1.3511871 1.2067987-.5161836.2749668-.9868217.4124502-1.4119141.4124502zm14.6945082 7.729622c.789458 0 1.45746-.1171155 2.004007-.3513465.546548-.2342309 1.04755-.6110373 1.503006-1.130419s.89067-1.1966147 1.305641-2.0316991c.414971-.8350843.875488-1.8432959 1.38155-3.0246347l4.888563-13.4733727 1.852188-.5804855v-1.7109045h-6.680023v1.7109045l1.761097.5804855-3.370376 10.6014974h-.121455l-3.73474-10.6014974 2.155825-.5804855-.24291-1.7109045h-7.712391v1.7109045l1.821825.5804855 6.103113 14.4204806-.364365 1.130419c-.24291.6314052-.470638 1.135511-.683184 1.5123174-.212547.3768063-.414972.6619571-.607275.8554522-.192304.1934952-.384608.3157026-.576912.3666224-.192303.0509198-.389668.0763797-.592093.0763797-.16194 0-.339061-.0356439-.531365-.1069316s-.308698-.2087711-.349183-.4124502c.24291 0 .455456-.0509197.637639-.1527593.182182-.1018395.32894-.229139.440274-.3818983s.192304-.3055187.24291-.458278.075909-.2800588.075909-.3818983c0-.5295657-.156879-.9267399-.470638-1.1915228-.313759-.2647828-.764154-.3971742-1.351187-.3971742-.668002 0-1.209489.229139-1.62446.6874169-.414971.458278-.622457 1.0438555-.622457 1.7567323 0 .3869903.091092.7434288.273274 1.0693153.182183.3258866.430153.6110373.743912.8554523.313758.2444149.678123.4328181 1.093095.5652095.414971.1323914.865366.1985871 1.351186.1985871z" fill="#fff"/><path d="m40.5789526 11.6568115c3.1664176-5.27736265 13.8768352-12.29918683 23.5474506-11.60969232 33.1194945 2.36268132 22.8074066 31.25421982 13.3309011 38.67487912-8.518088 6.671011-21.8004616 10.950022-33.1462858.3963077-11.3453186-10.5542198-6.897978-22.1846374-3.7320659-27.4614945zm21.4902396-1.0832747-.1344616.0005055c-1.8688132.0010109-3.4014725.5631208-3.9661099 1.4416703-.773912-.8052528-2.1028571-1.2136923-3.9524615-1.2136923h-1.4992967c-.3174505 0-.5742418.2567912-.5742418.5742417v.7026374c0 .3088571.2446594.5626154.5535165.5742418.7723956.0278022 1.3678682.1314285 1.7697363.3088571.4716264.2077582.7653187.4832527.8977582.8411429.138.3740659.2047253.8830989.2047253 1.556923v15.0379561c0 .6738242-.0697582 1.1858901-.2133187 1.565011-.1385055.3644615-.4316923.639956-.8972527.8421538-.3973187.1723736-.9897583.2734725-1.7611429.3002637-.3093626.0111209-.554022.2648792-.554022.5737363v.6682637c0 .3164396.2567913.5737363.5742418.5737363l2.1094286-.0005055c1.5533846-.0788571 2.6882198-.4872967 3.3746813-1.2152088.6864615.7274066 1.8137143 1.1363517 3.3802418 1.2152088h2.159978c.3174505 0 .5742417-.2567912.5742417-.5737362v-.6672528c0-.3093626-.2461758-.5636264-.5555384-.5737363-.7855385-.0247692-1.3931429-.1208131-1.8061319-.2845934-.4827473-.1905714-.7870549-.46-.9306154-.8244615-.1486154-.3786154-.2214066-.9018022-.2214066-1.5988791v-6.123055h1.4856484c1.8020879 0 3.5425055-.1450769 5.1727252-.4321978 1.6423517-.2881318 3.091099-.9513406 4.3052968-1.970923 1.2404835-1.0418242 1.8430329-2.5224176 1.8430329-4.5267033 0-2.0538242-.6586593-3.5409891-2.0143956-4.5474286-1.3249011-.9831868-2.6533406-1.5887692-3.9504395-1.8010769-1.2844616-.2102858-2.6412088-.3462638-4.0348572-.4054066-.3012747-.0116264-.7516703-.0176923-1.3395604-.0176923zm1.7980439 2.297978c.9012967.1526593 1.6843077.4175384 2.3267912.7885714 1.0701319.6167033 1.6125275 1.8688132 1.6125275 3.7204396 0 2.0027692-.5211648 3.306945-1.5493406 3.8776483-1.0463737.5803077-2.4369891.875011-4.1349451.875011h-1.5205275v-6.7731209c0-.6738241.0672308-1.1828571.2052308-1.556923.1304176-.3528352.4321978-.6364176.8972527-.8411429.4321978-.1905714 1.1166374-.2148352 2.163011-.0904835z" fill="#fafafa"/></g></svg>