<svg height="46" viewBox="0 0 50 46" width="50" xmlns="http://www.w3.org/2000/svg"><path d="m3.57895261 11.6568115c3.16641758-5.27736265 13.87683519-12.29918683 23.54745059-11.60969232 33.1194945 2.36268132 22.8074066 31.25421982 13.3309011 38.67487912-8.518088 6.671011-21.8004616 10.950022-33.14628575.3963077-11.34531869-10.5542198-6.89797803-22.1846374-3.73206594-27.4614945zm21.49023959-1.0832747-.1344616.0005055c-1.8688132.0010109-3.4014725.5631208-3.9661099 1.4416703-.773912-.8052528-2.1028571-1.2136923-3.9524615-1.2136923h-1.4992967c-.3174505 0-.5742418.2567912-.5742418.5742417v.7026374c0 .3088571.2446594.5626154.5535165.5742418.7723956.0278022 1.3678682.1314285 1.7697363.3088571.4716264.2077582.7653187.4832527.8977582.8411429.138.3740659.2047253.8830989.2047253 1.556923v15.0379561c0 .6738242-.0697582 1.1858901-.2133187 1.565011-.1385055.3644615-.4316923.639956-.8972527.8421538-.3973187.1723736-.9897583.2734725-1.7611429.3002637-.3093626.0111209-.554022.2648792-.554022.5737363v.6682637c0 .3164396.2567913.5737363.5742418.5737363l2.1094286-.0005055c1.5533846-.0788571 2.6882198-.4872967 3.3746813-1.2152088.6864615.7274066 1.8137143 1.1363517 3.3802418 1.2152088h2.159978c.3174505 0 .5742417-.2567912.5742417-.5737362v-.6672528c0-.3093626-.2461758-.5636264-.5555384-.5737363-.7855385-.0247692-1.3931429-.1208131-1.8061319-.2845934-.4827473-.1905714-.7870549-.46-.9306154-.8244615-.1486154-.3786154-.2214066-.9018022-.2214066-1.5988791v-6.123055h1.4856484c1.8020879 0 3.5425055-.1450769 5.1727252-.4321978 1.6423517-.2881318 3.091099-.9513406 4.3052968-1.970923 1.2404835-1.0418242 1.8430329-2.5224176 1.8430329-4.5267033 0-2.0538242-.6586593-3.5409891-2.0143956-4.5474286-1.3249011-.9831868-2.6533406-1.5887692-3.9504395-1.8010769-1.2844616-.2102858-2.6412088-.3462638-4.0348572-.4054066-.3012747-.0116264-.7516703-.0176923-1.3395604-.0176923zm1.7980439 2.297978c.9012967.1526593 1.6843077.4175384 2.3267912.7885714 1.0701319.6167033 1.6125275 1.8688132 1.6125275 3.7204396 0 2.0027692-.5211648 3.306945-1.5493406 3.8776483-1.0463737.5803077-2.4369891.875011-4.1349451.875011h-1.5205275v-6.7731209c0-.6738241.0672308-1.1828571.2052308-1.556923.1304176-.3528352.4321978-.6364176.8972527-.8411429.4321978-.1905714 1.1166374-.2148352 2.163011-.0904835z" fill="#f88354" fill-rule="evenodd"/></svg>