<svg height="60" viewBox="0 0 60 60" width="60" xmlns="http://www.w3.org/2000/svg"><g fill="none" fill-rule="evenodd"><path d="m30 0c-16.568 0-30 13.432-30 29.999 0 16.569 13.432 30.001 30 30.001 16.569 0 30-13.432 30-30.001 0-16.567-13.431-29.999-30-29.999zm14 48.5c0 .2761424-.2238576.5-.5.5 0 0-12-8-13.5-8s-13.5 8-13.5 8c-.2761424 0-.5-.2238576-.5-.5v-37c0-.2761424.2238576-.5.5-.5h27c.2761424 0 .5.2238576.5.5z" fill="#b00a0f" fill-rule="nonzero"/><path d="m44 48.5c0 .2761424-.2238576.5-.5.5 0 0-12-8-13.5-8s-13.5 8-13.5 8c-.2761424 0-.5-.2238576-.5-.5v-37c0-.2761424.2238576-.5.5-.5h27c.2761424 0 .5.2238576.5.5z" fill="#fff"/></g></svg>