<svg height="40" viewBox="0 0 48 40" width="48" xmlns="http://www.w3.org/2000/svg"><path d="m19.397475 0v19.397475h-19.397475v-19.397475zm-6.2654875 8.7451-10.9883375 9.489875h16.091325v-5.4075625zm5.1029875-7.5826h-17.072475v16.3838875l11.9412-10.312925 5.131275 4.105175zm-11.95518875 2.25660625c1.5775125 0 2.860525 1.2834 2.860525 2.860525 0 1.5775125-1.2830125 2.860525-2.860525 2.860525s-2.860525-1.2830125-2.860525-2.860525c0-1.577125 1.2830125-2.860525 2.860525-2.860525zm0 1.1625c-.9365875 0-1.698025.761825-1.698025 1.698025s.7614375 1.698025 1.698025 1.698025 1.698025-.761825 1.698025-1.698025-.7614375-1.698025-1.698025-1.698025zm17.42858755 20.28950005v14.8385375h-21.67675005v-14.8385375zm-1.1625 11.419625h-2.2564125v2.2564125h2.2564125zm-3.4193-10.257125h-12.51353755v12.5135375h12.51353755zm-13.67603755 10.257125h-2.2564125v2.2564125h2.2564125zm4.55874375-7.55873 6.32555 3.558025-6.32555 3.5584125zm12.5365938 4.1398175h-2.2564125v2.2564125h2.2564125zm-17.09533755 0h-2.2564125v2.2564125h2.2564125zm5.72124375-2.1519425v3.1406875l2.7919375-1.5705375zm11.3740938-1.26697h-2.2564125v2.2564125h2.2564125zm-17.09533755 0h-2.2564125v2.2564125h2.2564125zm17.09533755-3.4189125h-2.2564125v2.2564125h2.2564125zm-17.09533755 0h-2.2564125v2.2564125h2.2564125zm20.14806245-21.47525005h3.39605v-2.2564125h-3.39605zm4.55855 0h6.81535v-2.2564125h-6.81535zm7.97785 0h6.8149625v-2.2564125h-6.8149625zm-12.5364 3.4189125h3.39605v-2.2564125h-3.39605zm4.55855 0h6.81535v-2.2564125h-6.81535zm7.97785 0h6.8149625v-2.2564125h-6.8149625zm-12.5364 3.41891245h3.39605v-2.25641245h-3.39605zm4.55855 0h6.81535v-2.25641245h-6.81535zm7.97785 0h6.8149625v-2.25641245h-6.8149625zm-12.5364 3.4193h3.39605v-2.2564125h-3.39605zm4.55855 0h6.81535v-2.2564125h-6.81535zm7.97785 0h6.8149625v-2.2564125h-6.8149625zm-13.6989 1.1625h21.6763625v-14.83853745h-21.6763625zm8.6457063 11.2462576v-2.02895l8.6769-3.44565v2.02895zm7.071875 7.4152c-.8854375 0-1.6054125-.7203625-1.6054125-1.6054125 0-.8854375.719975-1.6054125 1.6054125-1.6054125.88505 0 1.605025.719975 1.605025 1.6054125 0 .88505-.719975 1.6054125-1.605025 1.6054125zm-9.8397875 3.9071625c-.88505 0-1.605025-.719975-1.605025-1.605025 0-.8854375.719975-1.6054125 1.605025-1.6054125.8854375 0 1.6054125.719975 1.6054125 1.6054125 0 .88505-.719975 1.605025-1.6054125 1.605025zm1.6054125-14.1402625v.394475 4.1357875 5.754375c-.453375-.3243375-1.006725-.5173125-1.6054125-.5173125-1.525975 0-2.767525 1.24155-2.767525 2.7679125 0 1.525975 1.24155 2.767525 2.767525 2.767525 1.5263625 0 2.7679125-1.24155 2.7679125-2.767525 0-.03875-.0042625-.076725-.0058125-.1150875h.0058125v-8.3514l8.6769-3.4460375v5.7547625c-.453375-.324725-1.006725-.5177-1.605025-.5177-1.5263625 0-2.7679125 1.2419375-2.7679125 2.7679125 0 1.5263625 1.24155 2.7679125 2.7679125 2.7679125 1.525975 0 2.767525-1.24155 2.767525-2.7679125 0-.03875-.0042625-.0763375-.0058125-.1147h.0058125v-8.3517875-3.674275-.8559875z" fill="#ea6e42" fill-rule="evenodd" transform="translate(.992 .145)"/></svg>