<svg xmlns="http://www.w3.org/2000/svg" width="872" height="832" viewBox="0 0 872 832">
  <g fill="none" fill-rule="evenodd" stroke="#F98355" stroke-linecap="round" stroke-linejoin="round" stroke-width="2" transform="translate(-105 -129)">
    <g transform="rotate(41 177.729 477.22)">
      <path d="M313.983712,28.0691431 C88.9167625,50.517844 -30.0769905,153.764208 8.02279266,301.257247 C52.1469293,472.069623 247.505299,552.189 434.860391,503.312428 C638.154672,450.277274 704.479823,289.859669 642.872654,173.961515 C581.265486,58.0639236 457.384208,13.7660686 313.983712,28.0691431 Z"/>
      <path d="M474.730435,389.545893 C596.922705,219.126014 602.136459,77.7351175 483.12061,21.6632861 C345.288762,-43.2732136 174.488497,48.7431641 92.3922237,207.552572 C3.31096848,379.872745 67.2632435,516.422859 180.030672,538.27651 C292.797539,560.130722 396.876126,498.127979 474.730435,389.545893 Z"/>
    </g>
    <g transform="rotate(-122 656.868 313.03)">
      <path d="M142.325096,50.1220313 C43.5728667,61.877256 -8.95045838,113.637334 7.24887199,187.05593 C26.0096551,272.082348 111.385909,311.524512 193.694664,286.691806 C283.005819,259.746255 312.633418,179.623011 286.019715,122.011281 C259.40601,64.3998301 205.24468,42.6322496 142.325096,50.1220313 Z" transform="rotate(92 149.883 171.363)"/>
      <path d="M117.655588,55.7339166 C61.8845185,54.9105238 -60.471744,114.237641 -42.705537,178.925636 C-22.1301229,253.841103 152.259928,314.466689 220.855273,269.52798 C361.364239,177.476667 254.430783,57.7532377 117.655588,55.7339166 Z" transform="rotate(92 121.246 170.316)"/>
    </g>
  </g>
</svg>
