<svg height="32" viewBox="0 0 31 32" width="31" xmlns="http://www.w3.org/2000/svg"><path d="m36.4430963 15.3449225c1.0675625 0 2.0223625.4909625 2.651275 1.2586.6289125-.7676375 1.5841-1.2586 2.6516625-1.2586h2.9283375v1.55h-2.9283375c-1.0350125 0-1.8766625.8420375-1.8766625 1.8766625v24.4570625c0 1.034625.84165 1.876275 1.8766625 1.876275h2.9283375v1.55h-2.9283375c-1.0675625 0-2.02275-.490575-2.6516625-1.2582125-.6289125.7676375-1.5837125 1.2582125-2.651275 1.2582125h-2.928725v-1.55h2.928725c1.034625 0 1.876275-.84165 1.876275-1.876275v-24.4570625c0-1.034625-.84165-1.8766625-1.876275-1.8766625h-2.928725v-1.55zm-4.7886863 5.543575v5.8981375h-1.4601l-.898225-4.2129h-4.6062125v16.6563l2.976775.6730875v1.208225h-8.7633125v-1.208225l2.976775-.6730875v-16.6563h-4.6341125l-.870325 4.2129h-1.4612625v-5.8981375z" fill="#ea6e42" fill-rule="evenodd" transform="translate(-14 -15)"/></svg>