<svg height="38" viewBox="0 0 37 38" width="37" xmlns="http://www.w3.org/2000/svg"><path d="m17.5995821.2486406c.4227257-.3315208 1.0171898-.3315208 1.4399156 0 3.9940115 3.13228556 9.5232089 5.22543158 16.6012165 6.25788209.6227449.09083818 1.0612085.65922703.9909842 1.28463197-1.5447443 13.75720634-7.525814 22.90024704-17.7362613 28.69568744-.3571695.2027291-.794625.2027291-1.1517945 0-10.20960707-5.7949635-16.19016824-14.9377372-17.7362494-28.69558215-.07028704-.62545107.36820274-1.19391198.99100229-1.28474162 7.07850384-1.03233538 12.60670851-3.12522636 16.60118661-6.25787773zm.7195133 2.3763594-.1695326.12569009c-3.9464543 2.81830364-9.06363318 4.75710415-15.34437937 5.83200931l-.34225468.0553006.02028267.15865391c1.61740362 11.88875039 6.80052823 19.85975589 15.48512768 25.11747379l.3507563.208539.3517256-.2085844c8.6853495-5.2581409 13.8688488-13.229316 15.4851563-25.11739673l.0204515-.15868557-.342475-.05533025c-6.2804461-1.0750195-11.3982995-3.01398482-15.3445102-5.83204364zm.0009722 7.323875c2.315784 0 4.2076781 1.8166685 4.327326 4.1031672l.0060074.2301661-.000401 1.1547917.9444496.0006319c.6013767 0 1.0964798.4550114 1.1598208 1.0395455l.0068459.1271212v7.6c0 .6443322-.5223345 1.1666667-1.1666667 1.1666667h-10.5555556c-.6443322 0-1.1666666-.5223345-1.1666666-1.1666667v-7.6c0-.6443322.5223344-1.1666667 1.1666666-1.1666667l.944106-.0006319.0007343-1.1547917c0-2.3939155 1.9394178-4.3333333 4.3333333-4.3333333zm4.1103612 7.8217917-.925463.000291c-.006066.0000929-.0121433.0001395-.0182315.0001395l-.0187343-.0010972-6.2963675.0009577c-.0060661.0000929-.0121433.0001395-.0182315.0001395l-.018401-.0010972-.9272379.0006667v5.2663333h8.2226667zm-4.1103612-5.4884584c-1.04708 0-1.9052328.8030433-1.9926641 1.8273358l-.0073359.1726642-.0000676 1.1547917h4l.0000676-1.1547917c0-1.1047203-.8955374-2-2-2z" fill="#f88354" fill-rule="evenodd" transform="translate(.333333 .833333)"/></svg>