<svg height="39" viewBox="0 0 38 39" width="38" xmlns="http://www.w3.org/2000/svg"><path d="m18.6666667.00047467c.0520274 0 .1040051.00021285.1559323.00063773.019442-.00090181.0388229-.00037082.0581423.0006412.1803747.00194793.3603779.00654055.5397303.01366373.1615978-.02645519.3306242-.0190888.4962649.02664224 9.726644.64284437 17.4165968 8.73613025 17.4165968 18.62508173 0 9.8896492-7.6896156 17.9822943-17.4163748 18.6254634-.1649257.0450718-.3328487.0526174-.4937096.0267201-.2507788.0094311-.5030902.0144832-.7565822.0144832l.2243042-.0018599c-.0306212.0018751-.0614046.0025422-.0922822.0019722l-.132022-.0001123c-10.30980099 0-18.6666667-8.3568657-18.6666667-18.6666667 0-10.30907366 8.35723217-18.66666663 18.6666667-18.66666663zm4.8218062 28.58385163-8.5497602-.0000549c.4621691 1.4868683 1.0389081 2.7550612 1.7104807 3.8204487.6207195.9847138 1.2729148 1.7104405 1.9114399 2.2193257l.1272742.0989663.2226264.1602818c.0333785.0226758.0648345.0433813.0942784.0621893l.0817571.0497c.0901926-.0022756.1802035-.0052822.2700269-.0090142l.0665162-.0406431c.0294362-.0188066.0608842-.0395106.0942545-.0621849l.2225737-.1602723c.0407017-.0308469.0831468-.0638098.1272458-.0989616.6384043-.5088769 1.2904814-1.2345978 1.9110924-2.2193099.6714598-1.0653931 1.2481023-2.3335936 1.710194-3.8204709zm-10.9795877.0002192-6.82199518-.0008137c2.34956409 3.0707656 5.76424258 5.2832586 9.69240448 6.0858483-.234825-.3104168-.4703445-.6499335-.7039983-1.0206035-.884251-1.4027818-1.6158043-3.0837904-2.166411-5.0644311zm19.1375581-.0008137-5.728145.0007631c-.5505084 1.9806299-1.2819313 3.6616293-2.1660251 5.0644046-.1530693.2428723-.3069398.4723702-.4609409.688963 3.3640684-.9924371 6.2764284-3.037394 8.355111-5.7541307zm-20.2964186-8.7500252-8.97566547.0002133c.16257164 2.3036743.80280099 4.4753999 1.82225911 6.4167481l7.77495146.0011307c-.356033-1.9053576-.5692801-4.0401257-.6215451-6.4180921zm13.3930783.0006928-11.0592298-.0000058c.0554836 2.4231236.28499 4.5552266.6627723 6.417012l9.7337957.0000411c.3777192-1.8617963.6071874-3.9939113.6626618-6.4170473zm10.2158711-.0004795-7.8820225-.0002188c-.0522557 2.3779552-.2654645 4.5127122-.6214339 6.4180596l6.6811973-.0010927c1.0194581-1.9413482 1.6596875-4.1130738 1.8222591-6.4167481zm-22.9873385-8.7513752-7.7745269.0005901c-1.0197331 1.9415378-1.66014541 4.1134772-1.82274736 6.417312l8.97566356.0002001c.0522687-2.377952.2655389-4.5127243.6216107-6.4181022zm12.1086015-.0002826-9.7333875.0000411c-.3778975 1.8619301-.6074748 3.9942088-.6629735 6.4175427l11.0592239-.0000058c-.0554895-2.4233462-.2850285-4.555637-.6628629-6.417578zm9.0559875.0008727-6.6807727-.0005521c.3560081 1.9053677.5692401 4.0401289.6214995 6.4180696l7.8820206-.0002055c-.162602-2.3038348-.8030143-4.4757742-1.8227474-6.417312zm-17.7567088-8.41775929-.1170533.02370027c-3.8785108.82229144-7.24854616 3.02106301-9.57479664 6.0609148l6.82140424-.0004462c.550583-1.98031049 1.2820667-3.66111503 2.1662108-5.06380389.2336744-.37072292.4692142-.71028845.7042349-1.02036498zm3.7080375-.32625019-.0826206.04966997c-.1177894.07525832-.267771.18088214-.4442189.32153125-.6385524.50899906-1.29077 1.2348297-1.9115051 2.21962189-.6714282 1.06521643-1.2480632 2.33311113-1.7101825 3.81953867l8.5491333-.00005497c-.4620421-1.48643642-1.0385805-2.75433873-1.709896-3.8195608-.6206265-.98479045-1.2727259-1.71061532-1.9111575-2.21960618-.1764092-.14064261-.3263554-.24626011-.4441139-.32151249l-.0684252-.04072071c-.0888232-.00368008-.1778296-.00665079-.2670136-.00890663zm4.2045259.65885488.0990115.14096914c.1206762.17421872.2411832.35643276.3611978.54686825.8839869 1.40268231 1.6153402 3.08347768 2.1658249 5.0637774l5.7275541.00039559c-2.0785105-2.71611497-4.9903231-4.76075642-8.3535883-5.75201038z" fill="#f88354" fill-rule="evenodd" transform="translate(.333333 .833333)"/></svg>