<svg height="40" viewBox="0 0 32 40" width="32" xmlns="http://www.w3.org/2000/svg"><path d="m20.99965 2.33333333c5.3846151 0 9.7658866 4.29040193 9.9128574 9.63908357l.0038093.2775831-.0003167 5.2493333 4.6673333.0006667c.6443322 0 1.1666667.5223345 1.1666667 1.1666667v21c0 .6443322-.5223345 1.1666666-1.1666667 1.1666666h-29.16666663c-.64433221 0-1.16666667-.5223344-1.16666667-1.1666666v-21c0-.6443322.52233446-1.1666667 1.16666667-1.1666667l4.66533333-.0006667.0009833-5.2493333c0-5.3838407 4.2907681-9.76586035 9.6391022-9.91285675zm13.4170167 17.49999997h-26.83333337v18.6666667h26.83333337zm-13.4166667 3.5c1.6114583 0 2.9166667 1.3066667 2.9166667 2.9166667 0 1.1141667-.6314584 2.0708333-1.5502084 2.5622917l1.3241667 5.2995833c.1152083.459375-.2333333.905625-.7072917.905625h-3.9652083c-.4739583 0-.8225-.44625-.7072917-.905625l1.3241667-5.2995833c-.91875-.4914584-1.5516667-1.448125-1.5516667-2.5622917 0-1.61 1.3066667-2.9166667 2.9166667-2.9166667zm-.00035-18.66666663c-4.1058835 0-7.4498783 3.26348732-7.5794368 7.33791423l-.0038965.2454191-.0003167 5.2493333h15.166l.0009833-5.2493333c0-4.1063021-3.2627763-7.44989471-7.3378724-7.57943725z" fill="#f88354" fill-rule="evenodd" transform="translate(-5 -1.5)"/></svg>