<svg height="36" viewBox="0 0 36 36" width="36" xmlns="http://www.w3.org/2000/svg"><g fill="none" fill-rule="evenodd" transform="translate(6 6)"><g fill="rgba(255, 255, 255, .5)"><path d="m5 2.5c0 1.38083333-1.11916667 2.5-2.5 2.5s-2.5-1.11916667-2.5-2.5 1.11916667-2.5 2.5-2.5 2.5 1.11916667 2.5 2.5"/><path d="m2.5 15c-1.38083333 0-2.5-1.1191667-2.5-2.5s1.11916667-2.5 2.5-2.5 2.5 1.1191667 2.5 2.5-1.11916667 2.5-2.5 2.5z"/><path d="m2.5 25c-1.38083333 0-2.5-1.1191667-2.5-2.5s1.11916667-2.5 2.5-2.5 2.5 1.1191667 2.5 2.5-1.11916667 2.5-2.5 2.5z"/></g><g stroke="rgba(255, 255, 255, .5)" stroke-linecap="round" stroke-linejoin="round" stroke-width="2"><path d="m24 2.5h-15"/><path d="m24 12.5h-15"/><path d="m24 22.5h-15"/></g></g></svg>
