<svg height="40" viewBox="0 0 162 40" width="162" xmlns="http://www.w3.org/2000/svg"><g fill="#fff" fill-rule="nonzero"><path d="m8.2492573 19.3406593v-1.5579975l-2.53617943-.5641026v-5.2649572h3.89770733c.8008988 0 1.5484043-.1029711 2.2425166-.3089134.6941122-.2059422 1.2725391-.5506715 1.7352806-1.034188.6229213-.5551485 1.1257077-1.28042327 1.5083594-2.17582417.3826516-.89540089.5739774-1.79080179.5739774-2.68620268 0-.85958486-.1824269-1.67439968-.5472808-2.44444445s-.8587415-1.44159544-1.4816627-2.01465201c-.4627415-.41188441-1.036719-.72975173-1.7219324-.95360195-.6852134-.22385023-1.4460672-.33577534-2.28256147-.33577534h-9.63748183v1.55799756l2.24251655.56410256v15.09645908l-2.24251655.5641026v1.5579975zm-.02669663-9.34798531h-2.5094828v-8.03174603h2.4026963c.51613476 0 .99222459.08506309 1.42826947.25518926s.80534816.4074074 1.10790996.71184371c.3737528.39397639.680764.87301587.9210336 1.43711844.2402696.56410256.3604044 1.14163614.3604044 1.73260073 0 .66259666-.1245842 1.24908425-.3737527 1.75946276s-.5517303.94464794-.9076853 1.3028083c-.2491685.25071225-.5917752.45217745-1.02782008.6043956-.43604489.15221816-.90323584.22832723-1.40157285.22832723zm16.04331453 9.61660561c1.1212583 0 2.0912357-.1343101 2.9099322-.4029304s1.5217076-.7163207 2.1090334-1.3431013c.6229213-.6805047 1.0990111-1.5266586 1.4282695-2.5384616.3292583-1.011803.4938875-2.0907611.4938875-3.2368742 0-1.1461132-.1646292-2.22507124-.4938875-3.23687425-.3292584-1.01180301-.8053482-1.85795686-1.4282695-2.53846154-.5873258-.62678062-1.2903369-1.07448107-2.1090334-1.34310134s-1.7886739-.4029304-2.9099322-.4029304-2.0912357.13431013-2.9099322.4029304-1.5217077.71632072-2.1090334 1.34310134c-.6229213.68050468-1.0990111 1.52665853-1.4282695 2.53846154s-.4938876 2.09076105-.4938876 3.23687425c0 1.1461131.1646292 2.2250712.4938876 3.2368742s.8053482 1.8579569 1.4282695 2.5384616c.5873257.6267806 1.2903369 1.074481 2.1090334 1.3431013s1.7886739.4029304 2.9099322.4029304zm0-1.7997558c-1.139056 0-1.9488537-.3581603-2.4293929-1.0744811-.5695281-.8774928-.8542921-2.4265364-.8542921-4.6471306 0-2.22059423.284764-3.76963778.8542921-4.64713066.4805392-.71632072 1.2903369-1.07448107 2.4293929-1.07448107s1.9488536.35816035 2.4293929 1.07448107c.569528.87749288.854292 2.42653643.854292 4.64713066 0 2.2205942-.284764 3.7696378-.854292 4.6471306-.4805393.7163208-1.2903369 1.0744811-2.4293929 1.0744811zm17.4849323 1.5311355v-1.5042735l-2.8832356-.5103785v-4.2173382c0-.9312169.0800899-1.7146927.2402696-2.3504273.1601798-.6357347.3470562-1.26699231.5606292-1.89377294.071191-.17908017.173528-.38949939.3070112-.63125763.1334831-.24175824.284764-.47008547.4538426-.68498168.1690786-.21489622.3426067-.3939764.5205842-.53724054s.3470561-.21489621.5072359-.21489621c-.0533933.19698819-.0889888.33577533-.1067865.41636141-.0177978.08058608-.0266966.18355719-.0266966.30891331 0 .3939764.1468314.75661376.4404943 1.08791209s.8053482.4969475 1.535056.4969475c.5873257 0 1.0411684-.21937322 1.3615279-.65811966s.4805392-.92673993.4805392-1.46398047c0-.73422873-.2313707-1.32071632-.6941122-1.75946276-.4627416-.43874643-1.0411684-.65811965-1.7352807-.65811965-.854292 0-1.6240447.32682132-2.3092581.98046398-.6852134.65364265-1.2324942 1.5982906-1.6418425 2.83394383h-.1067865l-.5873258-3.54578754h-4.6452128v1.1013431l2.0556402.51037851v10.87912085l-2.0556402.5103785v1.5042735zm8.4881694.2686203c.4627416 0 1.0901123-.0761091 1.8821121-.2283272.7919999-.1522182 1.7041346-.3894994 2.7364042-.7118437v-1.1819292h-1.8687638c-.3203595 0-.5517303-.026862-.6941123-.0805861-.142382-.053724-.2402696-.1343101-.2936629-.2417582-.0533932-.1432642-.0889887-.3268214-.1067865-.5506716-.0177977-.2238502-.0266966-.6402116-.0266966-1.2490842v-8.78388282h3.4171681v-1.74603174h-3.4171681v-3.76068377l-3.0434153.42979243-.3203595 3.33089134-2.6162693.37606837v1.36996337h2.5895727v9.69719172c0 .6805047.0133483 1.1864062.0400449 1.5177045s.0845393.6043956.1735281.8192918c.2313707.6625967.7475055.993895 1.5484042.993895zm14.868663 0 2.6963592-9.69719169 2.7764491 9.69719169h3.5506512l3.8443141-12.73260072 1.4416177-.51037851v-1.50427351h-5.8732576v1.50427351l1.7352807.51037851-2.1624267 8.40781442-.3203595 1.5848596h-.1067865l-.2669663-1.5848596-2.8565389-10.71794873h-2.7230558l-2.7764491 10.74481073-.2936628 1.5848596h-.1334832l-.2669662-1.5848596-2.2692132-8.43467642 1.8420672-.51037851v-1.50427351h-6.7809429v1.50427351l1.4149211.51037851 3.9777972 12.73260072zm25.8943694 0c.8364942 0 2.0734379-.2596663 3.7108309-.7789988v-1.2087912h-1.2013481c-.3915505 0-.6451685-.1656491-.7608539-.4969475-.1156853-.3312983-.173528-.9446479-.173528-1.8400488v-3.4920635c0-2.72201873-.7030112-4.70980872-2.1090334-5.96336997-.4093483-.35816036-.9477302-.65811966-1.6151459-.8998779-.6674156-.24175824-1.4193706-.36263736-2.2558648-.36263736-.6229213 0-1.2413931.07610907-1.8554155.22832722-.6140224.15221816-1.1702021.37606838-1.6685391.67155068-.498337.29548229-.8987864.65811965-1.2013482 1.08791208-.3025617.42979243-.4538426.92226293-.4538426 1.47741148 0 .55514856.1557303 1.01628002.4671909 1.38339439.3114607.36711436.751955.55067155 1.321483.55067155.5517303 0 1.0233707-.17460318 1.4149212-.52380953s.5873257-.74765975.5873257-1.19536019c0-.1969882-.0489438-.42531543-.1468314-.68498169s-.2714157-.46113146-.5205842-.6043956c.1067865-.25071225.3159101-.44770045.6273707-.59096459.3114606-.14326415.6540673-.21489622 1.0278201-.21489622.5161347 0 .9388313.12535613 1.2680897.37606838s.6184718.58201058.8676403.99389499c.1957753.35816036.3515056.77452178.467191 1.24908425.1156853.47456248.2180224 1.15954416.3070112 2.05494503-1.4594156.2328043-2.7186064.5014245-3.7775726.8058608-1.0589661.3044363-1.9310559.6715507-2.6162693 1.1013431-.6852134.4297925-1.1924492.92674-1.5217076 1.4908425-.3292584.5641026-.4938876 1.2132682-.4938876 1.947497 0 1.074481.3203595 1.9161579.9610785 2.5250305s1.5217077.9133089 2.642966.9133089c1.0500672 0 2.0289435-.2596663 2.9366288-.7789988.9076852-.5193325 1.637393-1.2356532 2.1891233-2.1489621h.1067865c0 .5909646.0222472 1.0744811.0667415 1.4505494.0444944.3760684.1201348.6715507.2269213.8864469s.253618.3671144.4404944.4566545c.1868763.0895401.4315954.1343101.7341572.1343101zm-5.0723589-1.960928c-.4093482 0-.7919999-.1611721-1.1479549-.4835164-.355955-.3223444-.5339325-.8774929-.5339325-1.6654457 0-.4477004.0800899-.8461538.2402696-1.1953602.1601798-.3492063.427146-.6581197.8008988-.9267399.3737528-.2686203.8676403-.5148555 1.4816627-.7387058.6140224-.2238502 1.3837751-.4342694 2.3092581-.6312576.0355955.2507123.0622922.5059015.0800899.7655678.0177978.2596662.0266966.4969475.0266966.7118437 0 .6446886-.0889887 1.1998372-.2669662 1.6654457-.1779775.4656084-.3648539.8237688-.5606292 1.074481-.3381572.4656085-.7341572.8192918-1.1879998 1.0610501-.4538426.2417582-.8676403.3626373-1.2413931.3626373zm12.9198093 6.7960928c.6941123 0 1.2814383-.1029711 1.7619773-.3089133s.921034-.5372405 1.321483-.993895c.400449-.4566544.783101-1.052096 1.147955-1.7863247.364854-.7342288.769753-1.6206757 1.214696-2.6593407l4.298157-11.84615385 1.628494-.51037851v-1.5042735h-5.873257v1.5042735l1.548404.51037851-2.963326 9.32112335h-.106786l-3.283685-9.32112335 1.89546-.51037851-.213573-1.5042735h-6.7809425v1.5042735l1.6017975.51037851 5.366022 12.67887665-.32036.993895c-.213573.5551486-.413797.998372-.600674 1.3296704-.186876.3312983-.364854.5820105-.5339323.7521367-.1690786.1701262-.3381573.2775743-.5072359.3223443-.1690786.0447701-.3426067.0671551-.5205842.0671551-.142382 0-.2981123-.031339-.4671909-.0940171-.1690787-.0626781-.2714157-.1835572-.3070112-.3626374.213573 0 .4004494-.04477.5606291-.1343101.1601798-.0895401.2892134-.2014652.3871011-.3357753.0978876-.1343102.1690786-.2686203.213573-.4029304.0444944-.1343102.0667415-.2462353.0667415-.3357754 0-.4656084-.1379325-.8148148-.4137977-1.047619-.2758651-.2328043-.671865-.3492064-1.1879998-.3492064-.5873258 0-1.0634156.2014652-1.4282695.6043956-.3648538.4029304-.5472808.917786-.5472808 1.5445666 0 .3402523.0800899.6536426.2402696.9401709.1601798.2865283.3782022.5372406.6540674.7521368.2758651.2148962.5962246.3805454.9610785.4969475s.7608538.1746031 1.1879998.1746031z" transform="translate(51.111111 9.333333)"/><path d="m3.14671111 10.2488c2.784-4.64 12.20088889-10.81377778 20.70355559-10.20755556 29.1195555 2.07733334 20.0528889 27.47955556 11.7208889 34.00399996-7.4893334 5.8653334-19.1675556 9.6275556-29.14311116.3484445-9.97511111-9.2795556-6.06488888-19.5053333-3.28133333-24.1448889zm19.10889269-.95211921-.3323149.00011921c-1.6431111.00088889-2.9906667.49511111-3.4871111 1.2675556-.6804445-.70800004-1.8488889-1.06711116-3.4751111-1.06711116h-1.3182223c-.2791111 0-.5048888.22577778-.5048888.50488886v.6177778c0 .2715556.2151111.4946667.4866666.5048889.6791111.0244444 1.2026667.1155556 1.556.2715556.4146667.1826666.6728889.4248888.7893334.7395555.1213333.3288889.18.7764445.18 1.3688889v13.2217778c0 .5924444-.0613334 1.0426666-.1875556 1.376-.1217778.3204444-.3795556.5626666-.7888889.7404444-.3493333.1515556-.8702222.2404445-1.5484444.264-.272.0097778-.4871111.2328889-.4871111.5044445v.5875555c0 .2782222.2257777.5044445.5048888.5044445l1.8546667-.0004445c1.3657778-.0693333 2.3635556-.4284444 2.9671111-1.0684444.6035556.6395555 1.5946667.9991111 2.972 1.0684444h1.8991111c.2791111 0 .5048889-.2257778.5048889-.5044444v-.5866667c0-.272-.2164444-.4955555-.4884444-.5044444-.6906667-.0217778-1.2248889-.1062223-1.588-.2502223-.4244445-.1675555-.692-.4044444-.8182222-.7248888-.1306667-.3328889-.1946667-.7928889-.1946667-1.4057778v-5.3835556h1.3062222c1.5844445 0 3.1146667-.1275555 4.548-.38 1.444-.2533333 2.7177778-.8364444 3.7853333-1.7328889 1.0906667-.916 1.6204445-2.2177777 1.6204445-3.98 0-1.8057777-.5791111-3.1133333-1.7711111-3.9982222-1.1648889-.8644444-2.3328889-1.39688888-3.4733334-1.58355554-1.1293333-.18488889-2.3222222-.30444445-3.5475555-.35644445-.2270476-.0087619-.5504218-.01393197-.9636851-.01523032zm1.3667962 2.02011921c.7924444.1342222 1.4808889.3671111 2.0457778.6933333.9408889.5422223 1.4177778 1.6431111 1.4177778 3.2711111 0 1.7608889-.4582223 2.9075556-1.3622223 3.4093334-.92.5102222-2.1426666.7693333-3.6355555.7693333h-1.3368889v-5.9551111c0-.5924444.0591111-1.04.1804444-1.3688889.1146667-.3102222.38-.5595555.7888889-.7395555.38-.1675556.9817778-.1888889 1.9017778-.0795556z"/></g></svg>