<?xml version="1.0" encoding="UTF-8"?>
<svg width="162px" height="40px" viewBox="0 0 162 40" version="1.1" xmlns="http://www.w3.org/2000/svg" xmlns:xlink="http://www.w3.org/1999/xlink">
    <!-- Generator: Sketch 60.1 (88133) - https://sketch.com -->
    <title>LOGO/Primary/Horizontal</title>
    <desc>Created with Sketch.</desc>
    <g id="Symbols" stroke="none" stroke-width="1" fill="none" fill-rule="evenodd">
        <g id="HEADER/Site" transform="translate(-16.000000, -17.000000)" fill="#FFFFFF">
            <g id="LOGO/Primary/Horizontal" transform="translate(16.000000, 17.000000)">
                <g>
                    <g id="LOGO/Primary/Logotype" transform="translate(51.111111, 9.333333)">
                        <g id="Portway">
                            <path d="M8.2492573,19.3406593 L8.2492573,17.7826618 L5.71307787,17.2185592 L5.71307787,11.953602 L9.6107852,11.953602 C10.411684,11.953602 11.1591895,11.8506309 11.8533018,11.6446886 C12.547414,11.4387464 13.1258409,11.0940171 13.5885824,10.6105006 C14.2115037,10.0553521 14.7142901,9.33007733 15.0969418,8.43467643 C15.4795934,7.53927554 15.6709192,6.64387464 15.6709192,5.74847375 C15.6709192,4.88888889 15.4884923,4.07407407 15.1236384,3.3040293 C14.7587845,2.53398453 14.2648969,1.86243386 13.6419757,1.28937729 C13.1792342,0.877492877 12.6052567,0.55962556 11.9200433,0.335775336 C11.2348299,0.111925112 10.4739761,0 9.63748183,0 L9.63748183,0 L0,0 L0,1.55799756 L2.24251655,2.12210012 L2.24251655,17.2185592 L0,17.7826618 L0,19.3406593 L8.2492573,19.3406593 Z M8.22256067,9.99267399 L5.71307787,9.99267399 L5.71307787,1.96092796 L8.11577417,1.96092796 C8.63190893,1.96092796 9.10799876,2.04599105 9.54404364,2.21611722 C9.98008852,2.38624339 10.3493918,2.62352462 10.6519536,2.92796093 C11.0257064,3.32193732 11.3327176,3.8009768 11.5729872,4.36507937 C11.8132568,4.92918193 11.9333916,5.50671551 11.9333916,6.0976801 C11.9333916,6.76027676 11.8088074,7.34676435 11.5596389,7.85714286 C11.3104704,8.36752137 11.0079086,8.8017908 10.6519536,9.15995116 C10.4027851,9.41066341 10.0601784,9.61212861 9.62413352,9.76434676 C9.18808863,9.91656492 8.72089768,9.99267399 8.22256067,9.99267399 L8.22256067,9.99267399 Z M24.2658752,19.6092796 C25.3871335,19.6092796 26.3571109,19.4749695 27.1758074,19.2063492 C27.9945039,18.9377289 28.697515,18.4900285 29.2848408,17.8632479 C29.9077621,17.1827432 30.3838519,16.3365893 30.7131103,15.3247863 C31.0423686,14.3129833 31.2069978,13.2340252 31.2069978,12.0879121 C31.2069978,10.9417989 31.0423686,9.86284086 30.7131103,8.85103785 C30.3838519,7.83923484 29.9077621,6.99308099 29.2848408,6.31257631 C28.697515,5.68579569 27.9945039,5.23809524 27.1758074,4.96947497 C26.3571109,4.7008547 25.3871335,4.56654457 24.2658752,4.56654457 C23.1446169,4.56654457 22.1746395,4.7008547 21.355943,4.96947497 C20.5372465,5.23809524 19.8342353,5.68579569 19.2469096,6.31257631 C18.6239883,6.99308099 18.1478985,7.83923484 17.8186401,8.85103785 C17.4893817,9.86284086 17.3247525,10.9417989 17.3247525,12.0879121 C17.3247525,13.2340252 17.4893817,14.3129833 17.8186401,15.3247863 C18.1478985,16.3365893 18.6239883,17.1827432 19.2469096,17.8632479 C19.8342353,18.4900285 20.5372465,18.9377289 21.355943,19.2063492 C22.1746395,19.4749695 23.1446169,19.6092796 24.2658752,19.6092796 Z M24.2658752,17.8095238 C23.1268192,17.8095238 22.3170215,17.4513635 21.8364823,16.7350427 C21.2669542,15.8575499 20.9821902,14.3085063 20.9821902,12.0879121 C20.9821902,9.86731787 21.2669542,8.31827432 21.8364823,7.44078144 C22.3170215,6.72446072 23.1268192,6.36630037 24.2658752,6.36630037 C25.4049312,6.36630037 26.2147288,6.72446072 26.6952681,7.44078144 C27.2647961,8.31827432 27.5495601,9.86731787 27.5495601,12.0879121 C27.5495601,14.3085063 27.2647961,15.8575499 26.6952681,16.7350427 C26.2147288,17.4513635 25.4049312,17.8095238 24.2658752,17.8095238 Z M41.7508075,19.3406593 L41.7508075,17.8363858 L38.8675719,17.3260073 L38.8675719,13.1086691 C38.8675719,12.1774522 38.9476618,11.3939764 39.1078415,10.7582418 C39.2680213,10.1225071 39.4548977,9.49124949 39.6684707,8.86446886 C39.7396617,8.68538869 39.8419987,8.47496947 39.9754819,8.23321123 C40.108965,7.99145299 40.2602459,7.76312576 40.4293245,7.54822955 C40.5984031,7.33333333 40.7719312,7.15425315 40.9499087,7.01098901 C41.1278862,6.86772487 41.2969648,6.7960928 41.4571446,6.7960928 C41.4037513,6.99308099 41.3681558,7.13186813 41.3503581,7.21245421 C41.3325603,7.29304029 41.3236615,7.3960114 41.3236615,7.52136752 C41.3236615,7.91534392 41.4704929,8.27798128 41.7641558,8.60927961 C42.0578187,8.94057794 42.569504,9.10622711 43.2992118,9.10622711 C43.8865375,9.10622711 44.3403802,8.88685389 44.6607397,8.44810745 C44.9810992,8.00936101 45.1412789,7.52136752 45.1412789,6.98412698 C45.1412789,6.24989825 44.9099082,5.66341066 44.4471667,5.22466422 C43.9844251,4.78591779 43.4059983,4.56654457 42.711886,4.56654457 C41.857594,4.56654457 41.0878413,4.89336589 40.4026279,5.54700855 C39.7174145,6.2006512 39.1701337,7.14529915 38.7607854,8.38095238 L38.7607854,8.38095238 L38.6539989,8.38095238 L38.0666731,4.83516484 L33.4214603,4.83516484 L33.4214603,5.93650794 L35.4771005,6.44688645 L35.4771005,17.3260073 L33.4214603,17.8363858 L33.4214603,19.3406593 L41.7508075,19.3406593 Z M50.2389769,19.6092796 C50.7017185,19.6092796 51.3290892,19.5331705 52.121089,19.3809524 C52.9130889,19.2287342 53.8252236,18.991453 54.8574932,18.6691087 L54.8574932,18.6691087 L54.8574932,17.4871795 L52.9887294,17.4871795 C52.6683699,17.4871795 52.4369991,17.4603175 52.2946171,17.4065934 C52.1522351,17.3528694 52.0543475,17.2722833 52.0009542,17.1648352 C51.947561,17.021571 51.9119655,16.8380138 51.8941677,16.6141636 C51.87637,16.3903134 51.8674711,15.973952 51.8674711,15.3650794 L51.8674711,15.3650794 L51.8674711,6.58119658 L55.2846392,6.58119658 L55.2846392,4.83516484 L51.8674711,4.83516484 L51.8674711,1.07448107 L48.8240558,1.5042735 L48.5036963,4.83516484 L45.887427,5.21123321 L45.887427,6.58119658 L48.4769997,6.58119658 L48.4769997,16.2783883 C48.4769997,16.958893 48.490348,17.4647945 48.5170446,17.7960928 C48.5437412,18.1273911 48.6015839,18.4004884 48.6905727,18.6153846 C48.9219434,19.2779813 49.4380782,19.6092796 50.2389769,19.6092796 Z M65.1076399,19.6092796 L67.8039991,9.91208791 L70.5804482,19.6092796 L74.1310994,19.6092796 L77.9754135,6.87667888 L79.4170312,6.36630037 L79.4170312,4.86202686 L73.5437736,4.86202686 L73.5437736,6.36630037 L75.2790543,6.87667888 L73.1166276,15.2844933 L72.7962681,16.8693529 L72.6894816,16.8693529 L72.4225153,15.2844933 L69.5659764,4.56654457 L66.8429206,4.56654457 L64.0664715,15.3113553 L63.7728087,16.8962149 L63.6393255,16.8962149 L63.3723593,15.3113553 L61.1031461,6.87667888 L62.9452133,6.36630037 L62.9452133,4.86202686 L56.1642704,4.86202686 L56.1642704,6.36630037 L57.5791915,6.87667888 L61.5569887,19.6092796 L65.1076399,19.6092796 Z M91.0020093,19.6092796 C91.8385035,19.6092796 93.0754472,19.3496133 94.7128402,18.8302808 L94.7128402,18.8302808 L94.7128402,17.6214896 L93.5114921,17.6214896 C93.1199416,17.6214896 92.8663236,17.4558405 92.7506382,17.1245421 C92.6349529,16.7932438 92.5771102,16.1798942 92.5771102,15.2844933 L92.5771102,15.2844933 L92.5771102,11.7924298 C92.5771102,9.07041107 91.874099,7.08262108 90.4680768,5.82905983 C90.0587285,5.47089947 89.5203466,5.17094017 88.8529309,4.92918193 C88.1855153,4.68742369 87.4335603,4.56654457 86.5970661,4.56654457 C85.9741448,4.56654457 85.355673,4.64265364 84.7416506,4.79487179 C84.1276282,4.94708995 83.5714485,5.17094017 83.0731115,5.46642247 C82.5747745,5.76190476 82.1743251,6.12454212 81.8717633,6.55433455 C81.5692016,6.98412698 81.4179207,7.47659748 81.4179207,8.03174603 C81.4179207,8.58689459 81.573651,9.04802605 81.8851116,9.41514042 C82.1965723,9.78225478 82.6370666,9.96581197 83.2065946,9.96581197 C83.7583249,9.96581197 84.2299653,9.79120879 84.6215158,9.44200244 C85.0130663,9.09279609 85.2088415,8.69434269 85.2088415,8.24664225 C85.2088415,8.04965405 85.1598977,7.82132682 85.0620101,7.56166056 C84.9641225,7.3019943 84.7905944,7.1005291 84.5414259,6.95726496 C84.6482124,6.70655271 84.857336,6.50956451 85.1687966,6.36630037 C85.4802572,6.22303622 85.8228639,6.15140415 86.1966167,6.15140415 C86.7127514,6.15140415 87.135448,6.27676028 87.4647064,6.52747253 C87.7939648,6.77818478 88.0831782,7.10948311 88.3323467,7.52136752 C88.528122,7.87952788 88.6838523,8.2958893 88.7995377,8.77045177 C88.915223,9.24501425 89.0175601,9.92999593 89.1065489,10.8253968 C87.6471333,11.0582011 86.3879425,11.3268213 85.3289763,11.6312576 C84.2700102,11.9356939 83.3979204,12.3028083 82.712707,12.7326007 C82.0274936,13.1623932 81.5202578,13.6593407 81.1909994,14.2234432 C80.861741,14.7875458 80.6971118,15.4367114 80.6971118,16.1709402 C80.6971118,17.2454212 81.0174713,18.0870981 81.6581903,18.6959707 C82.2989093,19.3048433 83.179898,19.6092796 84.3011563,19.6092796 C85.3512235,19.6092796 86.3300998,19.3496133 87.2377851,18.8302808 C88.1454703,18.3109483 88.8751781,17.5946276 89.4269084,16.6813187 L89.4269084,16.6813187 L89.5336949,16.6813187 C89.5336949,17.2722833 89.5559421,17.7557998 89.6004364,18.1318681 C89.6449308,18.5079365 89.7205712,18.8034188 89.8273577,19.018315 C89.9341442,19.2332112 90.0809757,19.3854294 90.2678521,19.4749695 C90.4547284,19.5645096 90.6994475,19.6092796 91.0020093,19.6092796 Z M85.9296504,17.6483516 C85.5203022,17.6483516 85.1376505,17.4871795 84.7816955,17.1648352 C84.4257405,16.8424908 84.247763,16.2873423 84.247763,15.4993895 C84.247763,15.0516891 84.3278529,14.6532357 84.4880326,14.3040293 C84.6482124,13.954823 84.9151786,13.6459096 85.2889314,13.3772894 C85.6626842,13.1086691 86.1565717,12.8624339 86.7705941,12.6385836 C87.3846165,12.4147334 88.1543692,12.2043142 89.0798522,12.007326 C89.1154477,12.2580383 89.1421444,12.5132275 89.1599421,12.7728938 C89.1777399,13.03256 89.1866387,13.2698413 89.1866387,13.4847375 C89.1866387,14.1294261 89.09765,14.6845747 88.9196725,15.1501832 C88.741695,15.6157916 88.5548186,15.973952 88.3590433,16.2246642 C88.0208861,16.6902727 87.6248861,17.043956 87.1710435,17.2857143 C86.7172009,17.5274725 86.3034032,17.6483516 85.9296504,17.6483516 Z M98.8494597,24.4444444 C99.543572,24.4444444 100.130898,24.3414733 100.611437,24.1355311 C101.091976,23.9295889 101.532471,23.5982906 101.93292,23.1416361 C102.333369,22.6849817 102.716021,22.0895401 103.080875,21.3553114 C103.445729,20.6210826 103.850628,19.7346357 104.295571,18.6959707 L104.295571,18.6959707 L108.593728,6.84981685 L110.222222,6.33943834 L110.222222,4.83516484 L104.348965,4.83516484 L104.348965,6.33943834 L105.897369,6.84981685 L102.934043,16.1709402 L102.827257,16.1709402 L99.543572,6.84981685 L101.439032,6.33943834 L101.225459,4.83516484 L94.4445165,4.83516484 L94.4445165,6.33943834 L96.046314,6.84981685 L101.412336,19.5286935 L101.091976,20.5225885 C100.878403,21.0777371 100.678179,21.5209605 100.491302,21.8522589 C100.304426,22.1835572 100.126448,22.4342694 99.9573697,22.6043956 C99.7882911,22.7745218 99.6192124,22.8819699 99.4501338,22.9267399 C99.2810552,22.97151 99.1075271,22.993895 98.9295496,22.993895 C98.7871676,22.993895 98.6314373,22.962556 98.4623587,22.8998779 C98.29328,22.8371998 98.190943,22.7163207 98.1553475,22.5372405 C98.3689205,22.5372405 98.5557969,22.4924705 98.7159766,22.4029304 C98.8761564,22.3133903 99.00519,22.2014652 99.1030777,22.0671551 C99.2009653,21.9328449 99.2721563,21.7985348 99.3166507,21.6642247 C99.3611451,21.5299145 99.3833922,21.4179894 99.3833922,21.3284493 C99.3833922,20.8628409 99.2454597,20.5136345 98.9695945,20.2808303 C98.6937294,20.048026 98.2977295,19.9316239 97.7815947,19.9316239 C97.1942689,19.9316239 96.7181791,20.1330891 96.3533252,20.5360195 C95.9884714,20.9389499 95.8060444,21.4538055 95.8060444,22.0805861 C95.8060444,22.4208384 95.8861343,22.7342287 96.046314,23.020757 C96.2064938,23.3072853 96.4245162,23.5579976 96.7003814,23.7728938 C96.9762465,23.98779 97.296606,24.1534392 97.6614599,24.2698413 C98.0263138,24.3862434 98.4223137,24.4444444 98.8494597,24.4444444 Z" fill-rule="nonzero"></path>
                        </g>
                    </g>
                    <g id="LOGO/Primary/Logomark">
                        <g id="Combined-Shape">
                            <path d="M3.14671111,10.2488 C5.93071111,5.6088 15.3476,-0.564977778 23.8502667,0.0412444444 C52.9698222,2.11857778 43.9031556,27.5208 35.5711556,34.0452444 C28.0818222,39.9105778 16.4036,43.6728 6.42804444,34.3936889 C-3.54706667,25.1141333 0.363155556,14.8883556 3.14671111,10.2488 Z M22.2556038,9.29668079 L21.9232889,9.2968 C20.2801778,9.29768889 18.9326222,9.79191111 18.4361778,10.5643556 C17.7557333,9.85635556 16.5872889,9.49724444 14.9610667,9.49724444 L13.6428444,9.49724444 C13.3637333,9.49724444 13.1379556,9.72302222 13.1379556,10.0021333 L13.1379556,10.6199111 C13.1379556,10.8914667 13.3530667,11.1145778 13.6246222,11.1248 C14.3037333,11.1492444 14.8272889,11.2403556 15.1806222,11.3963556 C15.5952889,11.5790222 15.8535111,11.8212444 15.9699556,12.1359111 C16.0912889,12.4648 16.1499556,12.9123556 16.1499556,13.5048 L16.1499556,26.7265778 C16.1499556,27.3190222 16.0886222,27.7692444 15.9624,28.1025778 C15.8406222,28.4230222 15.5828444,28.6652444 15.1735111,28.8430222 C14.8241778,28.9945778 14.3032889,29.0834667 13.6250667,29.1070222 C13.3530667,29.1168 13.1379556,29.3399111 13.1379556,29.6114667 L13.1379556,30.1990222 C13.1379556,30.4772444 13.3637333,30.7034667 13.6428444,30.7034667 L15.4975111,30.7030222 C16.8632889,30.6336889 17.8610667,30.2745778 18.4646222,29.6345778 C19.0681778,30.2741333 20.0592889,30.6336889 21.4366222,30.7030222 L23.3357333,30.7030222 C23.6148444,30.7030222 23.8406222,30.4772444 23.8406222,30.1985778 L23.8406222,29.6119111 C23.8406222,29.3399111 23.6241778,29.1163556 23.3521778,29.1074667 C22.6615111,29.0856889 22.1272889,29.0012444 21.7641778,28.8572444 C21.3397333,28.6896889 21.0721778,28.4528 20.9459556,28.1323556 C20.8152889,27.7994667 20.7512889,27.3394667 20.7512889,26.7265778 L20.7512889,21.3430222 L22.0575111,21.3430222 C23.6419556,21.3430222 25.1721778,21.2154667 26.6055111,20.9630222 C28.0495111,20.7096889 29.3232889,20.1265778 30.3908444,19.2301333 C31.4815111,18.3141333 32.0112889,17.0123556 32.0112889,15.2501333 C32.0112889,13.4443556 31.4321778,12.1368 30.2401778,11.2519111 C29.0752889,10.3874667 27.9072889,9.85502222 26.7668444,9.66835556 C25.6375111,9.48346667 24.4446222,9.36391111 23.2192889,9.31191111 C22.9922413,9.30314921 22.6688671,9.29797914 22.2556038,9.29668079 Z M23.6224,11.3168 C24.4148444,11.4510222 25.1032889,11.6839111 25.6681778,12.0101333 C26.6090667,12.5523556 27.0859556,13.6532444 27.0859556,15.2812444 C27.0859556,17.0421333 26.6277333,18.1888 25.7237333,18.6905778 C24.8037333,19.2008 23.5810667,19.4599111 22.0881778,19.4599111 L20.7512889,19.4599111 L20.7512889,13.5048 C20.7512889,12.9123556 20.8104,12.4648 20.9317333,12.1359111 C21.0464,11.8256889 21.3117333,11.5763556 21.7206222,11.3963556 C22.1006222,11.2288 22.7024,11.2074667 23.6224,11.3168 Z" fill-rule="nonzero"></path>
                        </g>
                    </g>
                </g>
            </g>
        </g>
    </g>
</svg>