<svg xmlns="http://www.w3.org/2000/svg" width="428" height="90" viewBox="0 0 428 90">
  <g fill="none" fill-rule="evenodd">
    <path fill="#F98355" d="M178.37 23.5724C182.757 23.5724 186.544 24.3024 189.624 25.7404 192.705 27.1804 195.142 29.0214 196.867 31.2134 198.589 33.4004 199.837 35.7284 200.578 38.1314 201.317 40.5324 201.692 42.8474 201.692 45.0144 201.692 48.7634 200.787 52.3234 199.005 55.5964 197.219 58.8714 194.541 61.5354 191.045 63.5114 187.55 65.4864 183.367 66.4884 178.612 66.4884 174.729 66.4884 171.261 65.8514 168.303 64.5964 165.343 63.3384 162.891 61.6314 161.015 59.5214 159.14 57.4144 157.732 55.0714 156.831 52.5574 155.93 50.0474 155.472 47.4894 155.472 44.9544 155.472 41.2864 156.345 37.7734 158.068 34.5114 159.791 31.2464 162.424 28.5774 165.89 26.5794 169.356 24.5844 173.555 23.5724 178.37 23.5724zM293.2158 24.3002C296.4598 24.3052 298.8848 24.9992 300.6208 26.4212 301.5718 24.9942 303.6218 24.3002 306.8748 24.3002L306.8748 24.3002 309.3548 24.3002C309.9018 24.3002 310.3448 24.7432 310.3448 25.2912L310.3448 25.2912 310.3448 26.4422C310.3448 26.9752 309.9228 27.4122 309.3908 27.4322 308.4178 27.4672 307.6718 27.5712 307.1728 27.7432 306.8048 27.8702 306.3138 28.1772 306.3138 29.3752 306.3138 30.0052 306.5458 31.1012 307.0038 32.6322L307.0038 32.6322 312.8578 52.6472 322.1408 24.9752C322.2758 24.5722 322.6538 24.3002 323.0798 24.3002L323.0798 24.3002 325.8728 24.3002C326.2928 24.3002 326.6668 24.5642 326.8068 24.9592L326.8068 24.9592 336.6188 52.6422 341.6338 33.8792C341.9978 32.5642 342.1738 31.5402 342.1738 30.7392 342.1738 29.3432 341.7428 28.4452 340.8938 28.0712 340.1658 27.7522 339.2498 27.5452 338.1748 27.4592 337.6598 27.4172 337.2638 26.9882 337.2638 26.4722L337.2638 26.4722 337.2638 25.2912C337.2638 24.7432 337.7068 24.3002 338.2538 24.3002L338.2538 24.3002 350.6968 24.3002C351.2448 24.3002 351.6878 24.7432 351.6878 25.2912L351.6878 25.2912 351.6878 26.5072C351.6878 27.0082 351.3138 27.4302 350.8168 27.4912 349.7348 27.6222 348.9128 27.8362 348.3728 28.1262 347.7328 28.4702 347.2168 29.0802 346.8388 29.9412 346.4438 30.8452 345.9358 32.4192 345.2868 34.7542L345.2868 34.7542 336.9048 65.7562C336.7878 66.1882 336.3958 66.4882 335.9478 66.4882L335.9478 66.4882 332.9498 66.4882C332.5298 66.4882 332.1568 66.2242 332.0168 65.8292L332.0168 65.8292 321.8548 37.2772 312.3438 65.8102C312.2088 66.2152 311.8298 66.4882 311.4038 66.4882L311.4038 66.4882 308.4648 66.4882C308.0248 66.4882 307.6378 66.1982 307.5138 65.7762L307.5138 65.7762 298.1708 33.8772C297.6028 31.9312 297.0958 30.5332 296.6208 29.6022 296.1658 28.7112 295.6308 28.1192 295.0318 27.8432 294.5618 27.6272 293.9288 27.4922 293.1498 27.4422 292.6288 27.4082 292.2238 26.9762 292.2238 26.4532L292.2238 26.4532 292.2238 25.2912C292.2238 25.0272 292.3278 24.7752 292.5138 24.5892 292.6998 24.4042 292.9518 24.3002 293.2138 24.3002L293.2138 24.3002zM132.497541 23.725C133.36803 23.7268 134.0442 23.7367 134.5122 23.7547 136.9162 23.8567 139.2572 24.0907 141.4732 24.4537 143.7112 24.8197 146.0032 25.8647 148.2882 27.5607 150.6282 29.2977 151.7652 31.8637 151.7652 35.4067 151.7652 38.8647 150.7242 41.4197 148.5852 43.2167 146.4892 44.9757 143.9902 46.1197 141.1572 46.6177 138.3442 47.1117 135.3412 47.3627 132.2322 47.3627L132.2322 47.3627 129.6692 47.3627 129.6692 57.9267C129.6692 59.1297 129.7942 60.0327 130.0512 60.6857 130.2982 61.3137 130.8232 61.7787 131.6562 62.1077 132.3692 62.3907 133.4172 62.5557 134.7732 62.5997 135.3072 62.6167 135.7312 63.0547 135.7312 63.5887L135.7312 63.5887 135.7312 64.7397C135.7312 65.2867 135.2882 65.7307 134.7412 65.7307L134.7412 65.7307 131.0132 65.7307C128.3112 65.5937 126.3662 64.8887 125.1822 63.6337 123.9972 64.8897 122.0402 65.5937 119.3592 65.7297L119.3592 65.7297 115.7202 65.7307C115.1732 65.7307 114.7302 65.2867 114.7302 64.7397L114.7302 64.7397 114.7302 63.5877C114.7302 63.0547 115.1522 62.6167 115.6852 62.5987 117.0162 62.5517 118.0382 62.3767 118.7242 62.0797 119.5262 61.7317 120.0332 61.2557 120.2722 60.6277 120.5192 59.9727 120.6402 59.0887 120.6402 57.9267L120.6402 57.9267 120.6402 31.9817C120.6402 30.8197 120.5242 29.9407 120.2872 29.2957 120.0582 28.6777 119.5512 28.2037 118.7382 27.8447 118.0442 27.5387 117.0172 27.3587 115.6842 27.3107 115.1512 27.2917 114.7302 26.8547 114.7302 26.3207L114.7302 26.3207 114.7302 25.1087C114.7302 24.5617 115.1732 24.1187 115.7202 24.1187L115.7202 24.1187 118.3062 24.1187C121.4982 24.1187 123.7912 24.8227 125.1262 26.2117 126.1012 24.6957 128.7452 23.7267 131.9682 23.7247L131.9682 23.7247zM285.7756 24.3C286.3226 24.3 286.7666 24.743 286.7666 25.291L286.7666 25.291 286.7666 35.309C286.7666 35.856 286.3226 36.3 285.7756 36.3L285.7756 36.3 284.4556 36.3C283.9596 36.3 283.5386 35.931 283.4736 35.438 283.1866 33.263 282.6736 31.678 281.9046 30.592 281.0726 29.418 280.1696 28.684 279.2206 28.412 278.2486 28.135 277.1106 27.994 275.8416 27.994L275.8416 27.994 270.7936 27.994 270.7936 57.927C270.7936 59.111 270.9086 59.999 271.1466 60.643 271.3716 61.252 271.9116 61.735 272.7516 62.078 273.4786 62.376 274.5076 62.551 275.8096 62.598 276.3426 62.617 276.7636 63.054 276.7636 63.588L276.7636 63.588 276.7636 64.739C276.7636 65.287 276.3206 65.73 275.7736 65.73L275.7736 65.73 273.1416 65.73C269.9266 65.73 267.6246 65.016 266.2936 63.606 264.9626 65.016 262.6606 65.73 259.4456 65.73L259.4456 65.73 256.8136 65.73C256.2666 65.73 255.8226 65.287 255.8226 64.739L255.8226 64.739 255.8226 63.589C255.8226 63.054 256.2466 62.617 256.7806 62.599 258.7986 62.532 260.1346 62.185 260.7516 61.569 261.4536 60.867 261.7946 59.676 261.7946 57.927L261.7946 57.927 261.7946 27.994 257.5946 27.994C255.8986 27.994 254.4736 28.131 253.3596 28.399 252.2746 28.661 251.3016 29.393 250.4706 30.576 249.7086 31.662 249.2526 33.236 249.0786 35.389 249.0366 35.903 248.6076 36.3 248.0906 36.3L248.0906 36.3 246.8116 36.3C246.2646 36.3 245.8206 35.856 245.8206 35.309L245.8206 35.309 245.8206 25.291C245.8206 24.743 246.2646 24.3 246.8116 24.3L246.8116 24.3zM367.8972 23.5121C368.3052 23.5121 368.6712 23.7621 368.8202 24.1421L368.8202 24.1421 381.1332 55.6241C382.0472 57.8991 382.7002 59.3991 383.1252 60.1991 383.5332 60.9661 384.1032 61.5661 384.8212 61.9821 385.4052 62.3221 386.1612 62.5201 387.1322 62.5871 387.6512 62.6231 388.0552 63.0541 388.0552 63.5751L388.0552 63.5751 388.0552 64.7391C388.0552 65.2871 387.6112 65.7301 387.0642 65.7301L387.0642 65.7301 386.9972 65.7301C383.7362 65.7301 381.2342 65.0371 379.3562 63.6111 378.5362 65.0361 376.5512 65.7301 373.3012 65.7301L373.3012 65.7301 369.3472 65.7301C368.8002 65.7301 368.3562 65.2871 368.3562 64.7391L368.3562 64.7391 368.3562 63.5911C368.3562 63.0541 368.7842 62.6151 369.3212 62.6011 370.5282 62.5691 371.4462 62.4581 372.0492 62.2701 372.7262 62.0601 373.0542 61.5711 373.0542 60.7761 373.0542 60.1931 372.9362 59.5911 372.7022 58.9871L372.7022 58.9871 370.8042 54.2421 357.6942 54.2421 356.7342 56.8031C356.1782 58.2741 355.8962 59.3441 355.8962 59.9881 355.8962 61.1331 356.3212 61.8361 357.1942 62.1351 357.9142 62.3831 358.7442 62.5361 359.6612 62.5891 360.1852 62.6201 360.5942 63.0541 360.5942 63.5781L360.5942 63.5781 360.5942 64.7391C360.5942 65.2871 360.1502 65.7301 359.6042 65.7301L359.6042 65.7301 347.1002 65.7301C346.5532 65.7301 346.1092 65.2871 346.1092 64.7391L346.1092 64.7391 346.1092 63.5651C346.1092 63.0531 346.4992 62.6261 347.0082 62.5791 347.7972 62.5051 348.4932 62.3091 349.0752 61.9951 349.8442 61.5811 350.5622 60.8131 351.2712 59.6451 351.9802 58.4751 352.7562 56.7961 353.5762 54.6551L353.5762 54.6551 365.2252 24.1491C365.3712 23.7651 365.7392 23.5121 366.1502 23.5121L366.1502 23.5121zM403.7888 24.3C404.3358 24.3 404.7798 24.743 404.7798 25.291L404.7798 25.291 404.7798 26.437C404.7798 26.975 404.3488 27.415 403.8098 27.426 403.2128 27.44 402.7148 27.467 402.3288 27.508 401.7948 27.566 401.3578 27.718 401.0298 27.962 400.7228 28.191 400.5658 28.564 400.5658 29.072 400.5658 29.436 400.6808 29.87 400.9158 30.399 401.1578 30.942 401.7148 31.967 402.5748 33.445L402.5748 33.445 408.8318 44.031 414.7798 34.622C416.0698 32.577 416.7248 31.066 416.7248 30.133 416.7248 28.925 416.3518 28.192 415.5868 27.892 414.9198 27.633 414.0648 27.483 412.9738 27.435 412.4438 27.412 412.0268 26.976 412.0268 26.446L412.0268 26.446 412.0268 25.291C412.0268 24.743 412.4698 24.3 413.0168 24.3L413.0168 24.3 426.3088 24.3C426.8558 24.3 427.2988 24.743 427.2988 25.291L427.2988 25.291 427.2988 26.515C427.2988 27.005 426.9418 27.421 426.4578 27.495 425.6738 27.614 424.9958 27.836 424.4428 28.154 423.7278 28.565 423.0008 29.254 422.2798 30.203 421.5418 31.172 420.4778 32.716 419.0278 34.922L419.0278 34.922 410.4168 48.246 410.4168 57.927C410.4168 59.031 410.5278 59.886 410.7558 60.54 410.9718 61.16 411.4888 61.663 412.2908 62.036 412.9878 62.36 414.0448 62.549 415.4328 62.598 415.9658 62.617 416.3878 63.054 416.3878 63.588L416.3878 63.588 416.3878 64.739C416.3878 65.287 415.9448 65.73 415.3968 65.73L415.3968 65.73 412.7658 65.73C409.5508 65.73 407.2478 65.016 405.9178 63.606 404.5868 65.015 402.2848 65.73 399.0698 65.73L399.0698 65.73 396.3768 65.73C395.8298 65.73 395.3868 65.287 395.3868 64.739L395.3868 64.739 395.3868 63.589C395.3868 63.055 395.8098 62.617 396.3438 62.599 397.6448 62.555 398.6688 62.395 399.3878 62.122 400.2298 61.803 400.7648 61.342 401.0208 60.714 401.2878 60.061 401.4178 59.15 401.4178 57.927L401.4178 57.927 401.4178 48.788 391.1368 31.642C391.0548 31.521 390.9698 31.385 390.8788 31.234 390.8158 31.128 390.7668 31.051 390.7208 30.993 390.6948 30.962 390.6708 30.928 390.6498 30.893 389.7908 29.496 389.0188 28.574 388.3548 28.151 387.8048 27.8 387.0628 27.578 386.0868 27.473 385.5838 27.419 385.2028 26.994 385.2028 26.488L385.2028 26.488 385.2028 25.291C385.2028 24.743 385.6458 24.3 386.1928 24.3L386.1928 24.3zM221.1447 23.7368L221.8277 23.7548C223.8607 23.8148 225.7917 23.9378 227.5677 24.1198 229.3457 24.3008 230.7717 24.5368 231.8077 24.8208 233.3267 25.2068 234.8017 25.8578 236.1737 26.7518 237.5527 27.6508 238.6917 28.8528 239.5597 30.3218 240.4297 31.7958 240.8707 33.5278 240.8707 35.4678 240.8707 36.8578 240.5647 38.2278 239.9617 39.5378 239.3567 40.8488 238.3717 42.0328 237.0327 43.0548 235.7737 44.0158 234.1217 44.7948 232.1147 45.3748 233.4617 46.2158 234.6297 47.2468 235.5907 48.4428 236.6227 49.7278 238.2567 52.1128 240.4507 55.5348 241.7127 57.4788 242.7707 58.9688 243.5907 59.9588 244.4137 60.9518 245.1447 61.6018 245.8267 61.9478 246.3467 62.2118 246.9887 62.4058 247.7357 62.5258 248.2167 62.6038 248.5697 63.0178 248.5697 63.5038L248.5697 63.5038 248.5697 64.7398C248.5697 65.2868 248.1267 65.7298 247.5787 65.7298L247.5787 65.7298 242.5647 65.7298C239.2847 65.7298 236.9537 64.9858 235.6367 63.5178 235.6077 63.4868 235.5827 63.4538 235.5587 63.4188 235.0047 62.6168 234.4157 61.7108 233.8067 60.7268L233.8067 60.7268 232.0477 57.8918 229.2587 53.2838C227.9977 51.2088 227.0747 49.8318 226.4397 49.0768 225.8287 48.3488 225.1237 47.8778 224.3427 47.6758 223.5417 47.4678 222.1527 47.3628 220.2167 47.3628L220.2167 47.3628 218.8357 47.3628 218.8357 57.9268C218.8357 59.0498 218.9517 59.9248 219.1897 60.6008 219.4187 61.2468 219.9477 61.7298 220.8087 62.0778 221.5437 62.3758 222.5787 62.5508 223.8827 62.5978 224.4157 62.6168 224.8367 63.0548 224.8367 63.5878L224.8367 63.5878 224.8367 64.7398C224.8367 65.2868 224.3937 65.7298 223.8467 65.7298L223.8467 65.7298 221.1687 65.7298C217.9547 65.7298 215.6517 65.0158 214.3217 63.6058 212.9907 65.0158 210.6887 65.7298 207.4737 65.7298L207.4737 65.7298 204.8867 65.7298C204.3397 65.7298 203.8967 65.2868 203.8967 64.7398L203.8967 64.7398 203.8967 63.5888C203.8967 63.0548 204.3197 62.6168 204.8537 62.5988 206.8507 62.5308 208.1717 62.1848 208.7777 61.5698 209.4707 60.8678 209.8067 59.6758 209.8067 57.9268L209.8067 57.9268 209.8067 31.9818C209.8067 30.2518 209.4797 29.0648 208.8067 28.3528 208.2167 27.7288 206.8867 27.3778 204.8537 27.3098 204.3197 27.2918 203.8967 26.8538 203.8967 26.3198L203.8967 26.3198 203.8967 25.1088C203.8967 24.5618 204.3397 24.1188 204.8867 24.1188L204.8867 24.1188 207.4737 24.1188C210.6647 24.1188 212.9567 24.8228 214.2927 26.2118 214.7267 25.5358 215.5037 24.9558 216.5557 24.5228 217.8047 24.0088 219.3917 23.7368 221.1447 23.7368L221.1447 23.7368zM178.612 27.4794C175.195 27.4794 172.493 28.3374 170.583 30.0294 168.668 31.7264 167.349 33.8814 166.663 36.4344 165.973 39.0064 165.623 41.8514 165.623 44.8934 165.623 46.5824 165.735 48.3604 165.955 50.1784 166.174 51.9924 166.71 53.8784 167.549 55.7844 168.382 57.6784 169.729 59.2974 171.555 60.5964 173.376 61.8934 175.771 62.5514 178.673 62.5514 181.552 62.5514 183.921 61.8734 185.712 60.5374 187.508 59.1984 188.836 57.5384 189.659 55.6044 190.488 53.6564 191.014 51.7694 191.223 49.9964 191.434 48.2144 191.541 46.4964 191.541 44.8934 191.541 42.6114 191.343 40.4184 190.953 38.3774 190.565 36.3474 189.872 34.4834 188.897 32.8394 187.927 31.2064 186.581 29.8904 184.895 28.9274 183.211 27.9664 181.096 27.4794 178.612 27.4794zM364.1612 37.2291L359.0002 50.9421 369.5822 50.9421 364.1612 37.2291zM135.3032 27.6887C133.4972 27.4737 132.3172 27.5157 131.5712 27.8437 130.7692 28.1977 130.2482 28.6867 130.0232 29.2957 129.7852 29.9407 129.6692 30.8197 129.6692 31.9817L129.6692 31.9817 129.6692 43.6677 132.2932 43.6677C135.2212 43.6677 137.6212 43.1597 139.4262 42.1577 141.2002 41.1737 142.0992 38.9227 142.0992 35.4677 142.0992 32.2737 141.1632 30.1137 139.3182 29.0487 138.2092 28.4087 136.8582 27.9517 135.3032 27.6887zM224.3597 27.7518C222.6687 27.4768 221.5057 27.5068 220.7377 27.8448 219.9247 28.2028 219.4177 28.6778 219.1897 29.2958 218.9517 29.9388 218.8357 30.8168 218.8357 31.9788L218.8357 31.9788 218.8357 43.6678 220.5807 43.6678C223.5927 43.6678 226.1537 43.1738 228.1927 42.1988 230.1917 41.2438 231.2057 38.9578 231.2057 35.4068 231.2057 32.2148 230.2307 30.0718 228.3067 29.0358 227.2077 28.4448 225.8797 28.0128 224.3597 27.7518zM53.6631019.093214028C34.5331019-1.27078597 13.3441019 12.620214 7.08010191 23.060214.817101906 33.499214-7.98089809 56.507214 14.4631019 77.385214 36.9081019 98.263214 63.1841019 89.799214 80.0351019 76.602214 98.7821019 61.922214 119.182102 4.76721403 53.6631019.093214028"/>
    <path fill="#FFF" fill-rule="nonzero" d="M46.6909019,30.386214 C46.6909019,29.053214 46.8239019,28.046214 47.0959019,27.306214 C47.3549019,26.607214 47.9519019,26.047214 48.8719019,25.641214 C49.7269019,25.265214 51.0809019,25.217214 53.1509019,25.464214 C54.9339019,25.764214 56.4829019,26.289214 57.7539019,27.023214 C59.8709019,28.244214 60.9439019,30.719214 60.9439019,34.383214 C60.9439019,38.344214 59.9129019,40.926214 57.8789019,42.054214 C55.8089019,43.202214 53.0569019,43.785214 49.6989019,43.785214 L46.6909019,43.785214 L46.6909019,30.386214 Z M68.0399019,25.316214 C65.4199019,23.372214 62.7909019,22.174214 60.2259019,21.754214 C57.6839019,21.338214 54.9999019,21.069214 52.2439019,20.952214 C51.6479019,20.929214 50.7559019,20.917214 49.5929019,20.917214 L49.3269019,20.918214 C45.6309019,20.920214 42.5989019,22.032214 41.4809019,23.770214 C39.9509019,22.177214 37.3219019,21.369214 33.6619019,21.369214 L30.6969019,21.369214 C30.0689019,21.369214 29.5609019,21.878214 29.5609019,22.505214 L29.5609019,23.895214 C29.5609019,24.506214 30.0449019,25.008214 30.6559019,25.030214 C32.1839019,25.086214 33.3619019,25.291214 34.1569019,25.641214 C35.0899019,26.053214 35.6699019,26.598214 35.9329019,27.306214 C36.2049019,28.046214 36.3379019,29.053214 36.3379019,30.386214 L36.3379019,60.135214 C36.3379019,61.468214 36.1999019,62.481214 35.9159019,63.231214 C35.6419019,63.952214 35.0619019,64.497214 34.1409019,64.896214 C33.3549019,65.237214 32.1819019,65.438214 30.6569019,65.491214 C30.0449019,65.512214 29.5609019,66.014214 29.5609019,66.626214 L29.5609019,67.947214 C29.5609019,68.574214 30.0689019,69.083214 30.6959019,69.083214 L34.8699019,69.082214 C37.9429019,68.926214 40.1879019,68.118214 41.5459019,66.678214 C42.9039019,68.117214 45.1339019,68.926214 48.2319019,69.082214 L52.5059019,69.082214 C53.1329019,69.082214 53.6419019,68.574214 53.6419019,67.947214 L53.6419019,66.627214 C53.6419019,66.014214 53.1549019,65.512214 52.5429019,65.492214 C50.9879019,65.442214 49.7869019,65.253214 48.9689019,64.929214 C48.0139019,64.552214 47.4129019,64.018214 47.1289019,63.298214 C46.8339019,62.549214 46.6909019,61.514214 46.6909019,60.135214 L46.6909019,48.021214 L49.6299019,48.021214 C53.1949019,48.021214 56.6379019,47.734214 59.8629019,47.167214 C63.1119019,46.597214 65.9779019,45.285214 68.3789019,43.268214 C70.8339019,41.207214 72.0259019,38.278214 72.0259019,34.313214 C72.0259019,30.250214 70.7229019,27.308214 68.0399019,25.316214 L68.0399019,25.316214 Z"/>
  </g>
</svg>
