<svg height="1443" viewBox="0 0 1375 1443" width="1375" xmlns="http://www.w3.org/2000/svg"><g style="fill:none;fill-rule:evenodd;stroke-linecap:round;stroke-linejoin:round;stroke:#f39932;stroke-width:2"><g transform="translate(640 841)"><path d="m340.79534 31.1545164c-245.0653675 24.4106809-374.6323606 136.6806096-333.14720511 297.0642996 48.04480541 185.7411 260.76182611 272.86278 464.76443311 219.714476 221.35808-57.670341 293.57658-232.108184 226.495281-358.135648-67.0813-126.026852-201.9701-174.1962675-358.112509-158.6431276z"/><path d="m515.884734 423.686413c133.022413-185.512415 138.698272-339.425014 9.133812-400.4626165-150.048157-70.6873336-335.986789 29.478096-425.3594184 202.3518065-96.97670359 187.580999-27.3562116 336.224112 95.4060184 360.013142 122.761618 23.789641 236.064897-43.70412 320.819588-161.902332z"/></g><g transform="translate(14 10)"><path d="m422.341113 38.2340524c-303.704799 30.2509934-464.2746821 169.3817646-412.86292647 368.1376276 59.54100367 230.180092 323.15711747 338.145838 575.97362647 272.281678 274.324813-71.468105 363.823812-287.640609 280.691247-443.820438-83.132565-156.1790718-250.297662-215.8731325-443.801947-196.5988676z"/><path d="m639.246573 525.265185c164.806529-229.846738 171.838567-420.54184 11.316227-496.1663946-185.900372-87.5804081-416.266818 36.5228614-526.993969 250.7104576-120.14812869 232.409679-33.8926518 416.575977 118.202146 446.050182 152.09404 29.474962 292.469784-54.148664 397.475596-200.594245z"/></g></g></svg>