<svg xmlns="http://www.w3.org/2000/svg" width="1399" height="1543" viewBox="0 0 1399 1543">
  <g fill="none" fill-rule="evenodd" stroke="#5066CE" stroke-linecap="round" stroke-linejoin="round" stroke-width="2">
    <g transform="matrix(1 0 0 -1 0 1498)">
      <path d="M404.865783,2.98544062 C154.716072,28.8105722 22.4609665,147.585861 64.8068099,317.262812 C113.848396,513.76648 330.978632,605.936332 539.213659,549.708407 C765.16423,488.69642 838.881039,304.150964 770.408011,170.820974 C701.934984,37.4916313 564.247661,-13.4689093 404.865783,2.98544062 Z"/>
      <path d="M544.891755,455.699274 C691.847749,285.591271 698.123664,144.46259 554.996989,88.4991078 C389.242476,23.6880868 183.833525,115.539846 85.097633,274.057481 C-22.0389864,446.061058 54.8646712,582.355449 190.478379,604.164481 C326.091412,625.974073 451.25934,564.08265 544.891755,455.699274 Z" transform="rotate(8 346.732 338.013)"/>
    </g>
    <g transform="matrix(1 0 0 -1 589 650)">
      <path d="M404.865783,2.98544062 C154.716072,28.8105722 22.4609665,147.585861 64.8068099,317.262812 C113.848396,513.76648 330.978632,605.936332 539.213659,549.708407 C765.16423,488.69642 838.881039,304.150964 770.408011,170.820974 C701.934984,37.4916313 564.247661,-13.4689093 404.865783,2.98544062 Z"/>
      <path d="M544.891755,455.699274 C691.847749,285.591271 698.123664,144.46259 554.996989,88.4991078 C389.242476,23.6880868 183.833525,115.539846 85.097633,274.057481 C-22.0389864,446.061058 54.8646712,582.355449 190.478379,604.164481 C326.091412,625.974073 451.25934,564.08265 544.891755,455.699274 Z" transform="rotate(8 346.732 338.013)"/>
    </g>
  </g>
</svg>
