<svg height="16" viewBox="0 0 16 16" width="16" xmlns="http://www.w3.org/2000/svg"><path d="m6.75986872-.05708393.03697271-.04186993c.16021509-.16021509.41231779-.17253933.58666943-.03697271l.04186993.03697271 6.89562291 6.8956229.0407863.04685274.0330617.05062963.020309.04122476.0205392.05900254.0065394.02743187.0081689.06284261v.05253401l-.0040791.03963327-.0072029.03732838-.0145878.04869336-.0152026.03664412-.0238869.04425239-.0187429.02792865-.013167.01724868-.0325353.03629235-6.89562291 6.8956229c-.17356635.1735663-.45497301.1735663-.62853936 0-.16021509-.1602151-.17253933-.4123178-.03697271-.5866694l.03697271-.04187 6.13649187-6.13718079-12.71784508.00027205c-.22792704 0-.41578097-.17157341-.44145435-.39261283l-.0029901-.05183161c0-.22792704.17157342-.41578096.39261283-.44145434l.05183162-.0029901 12.71784508-.00027206-6.13649187-6.13663671c-.16021509-.1602151-.17253933-.41231779-.03697271-.58666944l.03697271-.04186993z" transform="translate(.889 .889)"/></svg>